# ProBuilder 5.2.4
# https://unity3d.com/unity/features/worldbuilding/probuilder
# 13/01/2026 22:28:15

mtllib ./Bow.mtl
o Bow

g Bow_01
v -0.2464947 0.4584533 1.087423E-08
v -0.2435522 0.4625855 -0.008786323
v -0.288804 0.492169 -0.008054127
v -0.2376672 0.4708498 -0.008786323
v -0.2841539 0.5002231 -0.008054128
v -0.2347247 0.474982 1.12467E-08
v -0.2818289 0.5042502 1.322347E-08
v -0.2376672 0.4708498 0.008786344
v -0.2841539 0.5002231 0.008054152
v -0.2435522 0.4625855 0.008786344
v -0.288804 0.492169 0.008054153
v -0.01143163 0.05361924 0.01537609
v -0.009300111 0 0.01610828
v -0.01860023 0 9.956397E-10
v -0.01865596 0.1068329 0.01464389
v -0.0202688 0.05277541 1.060275E-09
v -0.03091538 0.159158 0.0139117
v -0.02695781 0.1052329 1.344362E-09
v -0.04810631 0.2101188 0.0131795
v -0.03862196 0.1568952 1.845918E-09
v -0.07008016 0.2592514 0.01244731
v -0.05517042 0.2072908 2.560974E-09
v -0.09664503 0.3061076 0.01171512
v -0.07646775 0.2559584 3.48361E-09
v -0.1275669 0.3502592 0.01098292
v -0.1023351 0.3024509 4.606006E-09
v -0.162572 0.3913021 0.01025073
v -0.1325513 0.3463396 5.918498E-09
v -0.201349 0.4288594 0.009518538
v -0.1668553 0.3872181 7.409674E-09
v -0.2049478 0.4247061 9.066454E-09
v 0.006242812 0.05530694 0.01537608
v 0.009300114 0 0.01610828
v -0.002052187 0.110033 0.01464389
v -0.01550227 0.1636837 0.0139117
v -0.03397804 0.215775 0.0131795
v -0.05730498 0.2658375 0.01244731
v -0.08526504 0.3134211 0.01171512
v -0.1175982 0.3580987 0.01098292
v -0.1540055 0.3994702 0.01025073
v -0.1941514 0.4371659 0.009518538
v 0.01507998 0.05615079 1.067303E-09
v 0.01860023 0 9.956409E-10
v 0.006249666 0.1116331 1.371075E-09
v -0.007795632 0.1659466 1.902802E-09
v -0.02691388 0.218603 2.656274E-09
v -0.05091744 0.2691305 3.62329E-09
v -0.07957503 0.3170778 4.793741E-09
v -0.1126138 0.3620185 6.1557E-09
v -0.1497222 0.4035543 7.695547E-09
v -0.1905527 0.4413191 9.398089E-09
v 0.009300111 0 -0.01610828
v 0.006242811 0.05530694 -0.01537608
v -0.002052189 0.110033 -0.01464389
v -0.01550227 0.1636837 -0.0139117
v -0.03397804 0.215775 -0.0131795
v -0.05730498 0.2658375 -0.0124473
v -0.08526504 0.3134211 -0.01171511
v -0.1175982 0.3580987 -0.01098291
v -0.1540055 0.3994702 -0.01025072
v -0.1941514 0.4371659 -0.009518521
v -0.009300114 0 -0.01610828
v -0.01143164 0.05361924 -0.01537608
v -0.01865596 0.1068329 -0.01464389
v -0.03091538 0.159158 -0.0139117
v -0.04810631 0.2101188 -0.0131795
v -0.07008016 0.2592514 -0.0124473
v -0.09664503 0.3061076 -0.01171511
v -0.1275669 0.3502592 -0.01098291
v -0.162572 0.3913021 -0.01025072
v -0.201349 0.4288594 -0.009518521
v -0.0211789 0.1051607 -0.01741808
v -0.01798719 0.08289853 -0.01838384
v 0.002968609 0.08628211 -0.01837978
v 0.002869785 0.08690403 0.01836956
v -0.02855676 0.08189125 2.323767E-09
v -0.01814914 0.08406074 0.01836408
v -0.03126717 0.1045057 2.449034E-09
v 0.008351803 0.1113117 1.468588E-09
v -0.0017336 0.1104826 0.01739315
v 0.01341969 0.08811291 2.877615E-10
v -0.001442016 0.1090275 -0.01741645
v -0.01433849 0.05855236 -0.01738098
v 0.005769728 0.05931729 -0.01740103
v 0.003155648 0.08221325 -0.01768795
v -0.01424622 0.05756812 0.01739635
v -0.02431267 0.05743506 2.760563E-09
v -0.0172419 0.08066393 -0.01766621
v -0.01711321 0.07970087 0.01768188
v 0.01344132 0.08254723 2.527201E-10
v 0.003308058 0.08119617 0.01770396
v 0.005862118 0.05847315 0.01741378
v 0.01590717 0.05912374 6.564355E-10
v -0.01379925 0.05250525 -0.01747539
v -0.01241422 0.03101308 -0.0178104
v 0.00803101 0.03353801 -0.01778951
v 0.008057357 0.03313266 0.01779561
v -0.01236516 0.02990431 0.01782767
v -0.02372992 0.0499913 2.746637E-09
v -0.0226239 0.02877291 2.731167E-09
v -0.01369542 0.05124825 0.017495
v 0.006174685 0.05552822 0.01745824
v 0.01828474 0.03412991 5.812513E-10
v 0.006132244 0.05593658 -0.01745208
v -0.01184648 0.003309512 -0.01824164
v 0.009232221 0.002190218 -0.01826029
v 0.008509695 0.02531944 -0.01791306
v -0.01184648 0.003309512 0.01824163
v 0.0197733 0.002300184 5.526369E-10
v -0.0223664 0.00416663 2.75802E-09
v -0.01219624 0.02561801 -0.01789441
v -0.01219624 0.02561801 0.0178944
v 0.01883781 0.02583951 5.665831E-10
v 0.008509696 0.02531944 0.01791307
v 0.009232224 0.002190218 0.01826029
v -0.2464947 -0.4584533 1.087423E-08
v -0.291129 -0.4881419 1.281695E-08
v -0.288804 -0.492169 -0.008054127
v -0.2435522 -0.4625855 -0.008786323
v -0.2841539 -0.5002231 -0.008054128
v -0.2376672 -0.4708498 -0.008786323
v -0.2818289 -0.5042502 1.322347E-08
v -0.2376672 -0.4708498 0.008786344
v -0.2347247 -0.474982 1.12467E-08
v -0.2841539 -0.5002231 0.008054152
v -0.288804 -0.492169 0.008054153
v -0.2435522 -0.4625855 0.008786344
v -0.01143163 -0.05361924 0.01537609
v -0.0202688 -0.05277541 1.060275E-09
v -0.01865596 -0.1068329 0.01464389
v -0.02695781 -0.1052329 1.344362E-09
v -0.03091538 -0.159158 0.0139117
v -0.03862196 -0.1568952 1.845918E-09
v -0.04810631 -0.2101188 0.0131795
v -0.05517042 -0.2072908 2.560974E-09
v -0.07008016 -0.2592514 0.01244731
v -0.07646775 -0.2559584 3.48361E-09
v -0.09664503 -0.3061076 0.01171512
v -0.1023351 -0.3024509 4.606006E-09
v -0.1275669 -0.3502592 0.01098292
v -0.1325513 -0.3463396 5.918498E-09
v -0.162572 -0.3913021 0.01025073
v -0.1668553 -0.3872181 7.409674E-09
v -0.201349 -0.4288594 0.009518538
v -0.2049478 -0.4247061 9.066454E-09
v 0.006242812 -0.05530694 0.01537608
v -0.002052187 -0.110033 0.01464389
v -0.01550227 -0.1636837 0.0139117
v -0.03397804 -0.215775 0.0131795
v -0.05730498 -0.2658375 0.01244731
v -0.08526504 -0.3134211 0.01171512
v -0.1175982 -0.3580987 0.01098292
v -0.1540055 -0.3994702 0.01025073
v -0.1941514 -0.4371659 0.009518538
v 0.01507998 -0.05615079 1.067303E-09
v 0.006249666 -0.1116331 1.371075E-09
v -0.007795632 -0.1659466 1.902802E-09
v -0.02691388 -0.218603 2.656274E-09
v -0.05091744 -0.2691305 3.62329E-09
v -0.07957503 -0.3170778 4.793741E-09
v -0.1126138 -0.3620185 6.1557E-09
v -0.1497222 -0.4035543 7.695547E-09
v -0.1905527 -0.4413191 9.398089E-09
v 0.006242811 -0.05530694 -0.01537608
v -0.002052189 -0.110033 -0.01464389
v -0.01550227 -0.1636837 -0.0139117
v -0.03397804 -0.215775 -0.0131795
v -0.05730498 -0.2658375 -0.0124473
v -0.08526504 -0.3134211 -0.01171511
v -0.1175982 -0.3580987 -0.01098291
v -0.1540055 -0.3994702 -0.01025072
v -0.1941514 -0.4371659 -0.009518521
v -0.01143164 -0.05361924 -0.01537608
v -0.01865596 -0.1068329 -0.01464389
v -0.03091538 -0.159158 -0.0139117
v -0.04810631 -0.2101188 -0.0131795
v -0.07008016 -0.2592514 -0.0124473
v -0.09664503 -0.3061076 -0.01171511
v -0.1275669 -0.3502592 -0.01098291
v -0.162572 -0.3913021 -0.01025072
v -0.201349 -0.4288594 -0.009518521
v 0.002968609 -0.08628211 -0.01837978
v -0.01798719 -0.08289853 -0.01838384
v -0.0211789 -0.1051607 -0.01741808
v 0.01341969 -0.08811291 2.877615E-10
v -0.02855676 -0.08189125 2.323767E-09
v -0.03126717 -0.1045057 2.449034E-09
v -0.01814914 -0.08406074 0.01836408
v -0.02146167 -0.1067214 0.01739227
v -0.0017336 -0.1104826 0.01739315
v 0.002869785 -0.08690403 0.01836956
v 0.008351803 -0.1113117 1.468588E-09
v -0.001442016 -0.1090275 -0.01741645
v -0.01433849 -0.05855236 -0.01738098
v -0.0172419 -0.08066393 -0.01766621
v 0.003155648 -0.08221325 -0.01768795
v 0.005862118 -0.05847315 0.01741378
v 0.005769728 -0.05931729 -0.01740103
v 0.01590717 -0.05912374 6.564355E-10
v -0.02431267 -0.05743506 2.760563E-09
v -0.0273515 -0.07932535 4.373246E-09
v -0.01424622 -0.05756812 0.01739635
v -0.01711321 -0.07970087 0.01768188
v 0.003308058 -0.08119617 0.01770396
v 0.01344132 -0.08254723 2.527201E-10
v 0.00803101 -0.03353801 -0.01778951
v -0.01241422 -0.03101308 -0.0178104
v -0.01379925 -0.05250525 -0.01747539
v 0.008057357 -0.03313266 0.01779561
v 0.01828474 -0.03412991 5.812513E-10
v -0.0226239 -0.02877291 2.731167E-09
v -0.02372992 -0.0499913 2.746637E-09
v -0.01236516 -0.02990431 0.01782767
v -0.01369542 -0.05124825 0.017495
v 0.006174685 -0.05552822 0.01745824
v 0.01608682 -0.05756474 6.503799E-10
v 0.006132244 -0.05593658 -0.01745208
v -0.01184648 -0.003309512 -0.01824164
v -0.01219624 -0.02561801 -0.01789441
v 0.008509695 -0.02531944 -0.01791306
v -0.01184648 -0.003309512 0.01824163
v 0.0197733 -0.002300184 5.526369E-10
v -0.0223664 -0.00416663 2.75802E-09
v -0.02254176 -0.02606621 2.731769E-09
v -0.01219624 -0.02561801 0.0178944
v 0.01883781 -0.02583951 5.665831E-10
v 0.009232224 -0.002190218 0.01826029
v 0.008509696 -0.02531944 0.01791307
v 0.009232221 -0.002190218 -0.01826029
v -0.2735561 0.4805225 -5.962431E-11
v -0.2635561 0.4805225 2.185567E-10
v -0.2685561 0.4805225 0.005
v -0.2735561 -0.4805225 -5.962431E-11
v -0.2650205 -0.4805225 0.003535534
v -0.2720916 -0.4805225 -0.003535534
v -0.2652586 0.4913415 -0.01039186
v -0.2655743 0.4956344 2.910383E-11
v -0.2675839 0.4946234 2.910383E-11
v -0.2672867 0.490582 -0.009783123
v -0.2682901 0.4924875 2.910383E-11
v -0.2672791 0.4904778 2.910383E-11
v -0.2670712 0.4876507 -0.006843859
v -0.2651432 0.4897716 2.910383E-11
v -0.2649538 0.487196 -0.006235118
v -0.2631336 0.4907826 2.910383E-11
v -0.2624274 0.4929186 2.910383E-11
v -0.2621749 0.4894843 -0.008313491
v -0.2634383 0.4949282 2.910383E-11
v -0.2631412 0.4908868 -0.009783123
v -0.2644966 0.4809776 -0.01469631
v -0.2680376 0.4890532 -0.008313491
v -0.267428 0.4807621 -0.01175705
v -0.2665693 0.4808252 -0.009678679
v -0.2644966 0.4809776 -0.008817788
v -0.2629257 0.4879554 -0.006843859
v -0.2615652 0.4811932 -0.01175705
v -0.2624238 0.48113 -0.01383542
v -0.2637346 0.4706137 -0.01039186
v -0.2665693 0.4808252 -0.01383542
v -0.265852 0.4710684 -0.009783119
v -0.2668183 0.472471 -0.008313488
v -0.2640394 0.4747593 -0.006235117
v -0.2624238 0.48113 -0.009678679
v -0.261922 0.4743046 -0.006843857
v -0.2609556 0.4729021 -0.008313488
v -0.2634189 0.4663209 -1.255689E-09
v -0.2655548 0.467027 -1.180427E-09
v -0.2665658 0.4690367 -9.9873E-10
v -0.2660675 0.4739998 -0.006843857
v -0.26385 0.4721836 -7.417719E-10
v -0.2617141 0.4714774 -8.170326E-10
v -0.2607031 0.4694678 -9.9873E-10
v -0.2617064 0.4713732 -0.009783119
v -0.265852 0.4710684 0.009783119
v -0.2668183 0.472471 0.008313488
v -0.2658596 0.4711726 -8.170336E-10
v -0.2660675 0.4739998 0.006843857
v -0.2640394 0.4747593 0.006235117
v -0.261922 0.4743046 0.006843857
v -0.2614093 0.4673318 -1.180427E-09
v -0.2617064 0.4713732 0.009783119
v -0.2637346 0.4706137 0.01039186
v -0.2665693 0.4808252 0.01383542
v -0.267428 0.4807621 0.01175705
v -0.2665693 0.4808252 0.009678679
v -0.2644966 0.4809776 0.008817788
v -0.2624238 0.48113 0.009678679
v -0.2609556 0.4729021 0.008313488
v -0.2624238 0.48113 0.01383542
v -0.2644966 0.4809776 0.01469631
v -0.2672867 0.490582 0.009783127
v -0.2680376 0.4890532 0.008313496
v -0.2670712 0.4876507 0.006843864
v -0.2629257 0.4879554 0.006843864
v -0.2615652 0.4811932 0.01175705
v -0.2621749 0.4894843 0.008313496
v -0.2652586 0.4913415 0.01039187
v -0.2649538 0.487196 0.006235122
v -0.2631412 0.4908868 0.009783127
v -0.2516571 0.4871307 2.910383E-11
v -0.2532794 0.4885861 2.910383E-11
v -0.2568197 0.4868894 -0.00947786
v -0.2554556 0.488468 2.910383E-11
v -0.2584641 0.4870262 -0.008054087
v -0.2569109 0.4868457 2.910383E-11
v -0.2593876 0.4856588 -0.006630312
v -0.2567929 0.4846695 2.910383E-11
v -0.2551706 0.4832141 2.910383E-11
v -0.2576472 0.4820272 -0.006630312
v -0.2529944 0.4833322 2.910383E-11
v -0.2560028 0.4818904 -0.008054087
v -0.251539 0.4849545 2.910383E-11
v -0.2554177 0.4853285 -0.01006761
v -0.2653668 0.4827934 -0.01340372
v -0.2653668 0.4827934 -0.009376677
v -0.2590493 0.4835881 -0.006040565
v -0.2636264 0.4791619 -0.009376677
v -0.263266 0.4784097 -0.0113902
v -0.2550794 0.4832579 -0.00947786
v -0.2644966 0.4809776 -0.01423775
v -0.2735755 0.4766267 -0.01006761
v -0.2739139 0.4786974 -0.009477858
v -0.2657272 0.4835455 -0.0113902
v -0.2713459 0.479928 -0.006630309
v -0.2699439 0.4783671 -0.006040563
v -0.2705291 0.474929 -0.008054084
v -0.2636264 0.4791619 -0.01340372
v -0.2773361 0.4748245 -1.2156E-09
v -0.2729903 0.4800648 -0.008054084
v -0.2759988 0.478623 -9.666586E-10
v -0.2738226 0.4787411 -7.906316E-10
v -0.2722003 0.4772857 -7.177183E-10
v -0.2696056 0.4762964 -0.006630309
v -0.2720822 0.4751095 -7.906316E-10
v -0.2735376 0.4734872 -9.666586E-10
v -0.2721735 0.4750658 -0.009477858
v -0.2774542 0.4770007 -1.142687E-09
v -0.2739139 0.4786974 0.009477858
v -0.2729903 0.4800648 0.008054084
v -0.2713459 0.479928 0.006630309
v -0.2696056 0.4762964 0.006630309
v -0.2705291 0.474929 0.008054084
v -0.2757138 0.4733692 -1.142687E-09
v -0.2721735 0.4750658 0.009477858
v -0.2735755 0.4766267 0.01006761
v -0.2653668 0.4827934 0.01340372
v -0.2657272 0.4835455 0.0113902
v -0.2653668 0.4827934 0.009376677
v -0.2699439 0.4783671 0.006040563
v -0.2636264 0.4791619 0.009376677
v -0.2636264 0.4791619 0.01340372
v -0.2554177 0.4853285 0.01006761
v -0.2644966 0.4809776 0.01423775
v -0.2584641 0.4870262 0.008054091
v -0.2590493 0.4835881 0.006040568
v -0.2576472 0.4820272 0.006630315
v -0.263266 0.4784097 0.0113902
v -0.2550794 0.4832579 0.009477866
v -0.2568197 0.4868894 0.009477866
v -0.2593876 0.4856588 0.006630315
v -0.2560028 0.4818904 0.008054091
v -0.2675839 -0.4946234 2.910383E-11
v -0.2655743 -0.4956344 2.910383E-11
v -0.2652586 -0.4913415 -0.01039186
v -0.2682901 -0.4924875 2.910383E-11
v -0.2672867 -0.490582 -0.009783123
v -0.2680376 -0.4890532 -0.008313491
v -0.2670712 -0.4876507 -0.006843859
v -0.2672791 -0.4904778 2.910383E-11
v -0.2649538 -0.487196 -0.006235118
v -0.2631336 -0.4907826 2.910383E-11
v -0.2651432 -0.4897716 2.910383E-11
v -0.2629257 -0.4879554 -0.006843859
v -0.2621749 -0.4894843 -0.008313491
v -0.2634383 -0.4949282 2.910383E-11
v -0.2624274 -0.4929186 2.910383E-11
v -0.2631412 -0.4908868 -0.009783123
v -0.2644966 -0.4809776 -0.01469631
v -0.2665693 -0.4808252 -0.01383542
v -0.267428 -0.4807621 -0.01175705
v -0.2665693 -0.4808252 -0.009678679
v -0.2644966 -0.4809776 -0.008817788
v -0.2624238 -0.48113 -0.009678679
v -0.2615652 -0.4811932 -0.01175705
v -0.2624238 -0.48113 -0.01383542
v -0.2637346 -0.4706137 -0.01039186
v -0.265852 -0.4710684 -0.009783119
v -0.2668183 -0.472471 -0.008313488
v -0.2660675 -0.4739998 -0.006843857
v -0.2640394 -0.4747593 -0.006235117
v -0.261922 -0.4743046 -0.006843857
v -0.2609556 -0.4729021 -0.008313488
v -0.2617064 -0.4713732 -0.009783119
v -0.2634189 -0.4663209 -1.255689E-09
v -0.2655548 -0.467027 -1.180427E-09
v -0.2665658 -0.4690367 -9.9873E-10
v -0.2658596 -0.4711726 -8.170336E-10
v -0.26385 -0.4721836 -7.417719E-10
v -0.2617141 -0.4714774 -8.170326E-10
v -0.2607031 -0.4694678 -9.9873E-10
v -0.2614093 -0.4673318 -1.180427E-09
v -0.2637346 -0.4706137 0.01039186
v -0.265852 -0.4710684 0.009783119
v -0.2668183 -0.472471 0.008313488
v -0.2660675 -0.4739998 0.006843857
v -0.2640394 -0.4747593 0.006235117
v -0.261922 -0.4743046 0.006843857
v -0.2609556 -0.4729021 0.008313488
v -0.2617064 -0.4713732 0.009783119
v -0.2644966 -0.4809776 0.01469631
v -0.2665693 -0.4808252 0.01383542
v -0.267428 -0.4807621 0.01175705
v -0.2665693 -0.4808252 0.009678679
v -0.2644966 -0.4809776 0.008817788
v -0.2624238 -0.48113 0.009678679
v -0.2615652 -0.4811932 0.01175705
v -0.2624238 -0.48113 0.01383542
v -0.2652586 -0.4913415 0.01039187
v -0.2672867 -0.490582 0.009783127
v -0.2680376 -0.4890532 0.008313496
v -0.2670712 -0.4876507 0.006843864
v -0.2649538 -0.487196 0.006235122
v -0.2629257 -0.4879554 0.006843864
v -0.2621749 -0.4894843 0.008313496
v -0.2631412 -0.4908868 0.009783127
v -0.2516571 -0.4871307 2.910383E-11
v -0.2554177 -0.4853285 -0.01006761
v -0.2568197 -0.4868894 -0.00947786
v -0.2554556 -0.488468 2.910383E-11
v -0.2532794 -0.4885861 2.910383E-11
v -0.2569109 -0.4868457 2.910383E-11
v -0.2584641 -0.4870262 -0.008054087
v -0.2567929 -0.4846695 2.910383E-11
v -0.2593876 -0.4856588 -0.006630312
v -0.2590493 -0.4835881 -0.006040565
v -0.2576472 -0.4820272 -0.006630312
v -0.2551706 -0.4832141 2.910383E-11
v -0.2560028 -0.4818904 -0.008054087
v -0.251539 -0.4849545 2.910383E-11
v -0.2529944 -0.4833322 2.910383E-11
v -0.2550794 -0.4832579 -0.00947786
v -0.2644966 -0.4809776 -0.01423775
v -0.2653668 -0.4827934 -0.01340372
v -0.2657272 -0.4835455 -0.0113902
v -0.2653668 -0.4827934 -0.009376677
v -0.2636264 -0.4791619 -0.009376677
v -0.263266 -0.4784097 -0.0113902
v -0.2636264 -0.4791619 -0.01340372
v -0.2735755 -0.4766267 -0.01006761
v -0.2739139 -0.4786974 -0.009477858
v -0.2729903 -0.4800648 -0.008054084
v -0.2713459 -0.479928 -0.006630309
v -0.2699439 -0.4783671 -0.006040563
v -0.2696056 -0.4762964 -0.006630309
v -0.2705291 -0.474929 -0.008054084
v -0.2721735 -0.4750658 -0.009477858
v -0.2773361 -0.4748245 -1.2156E-09
v -0.2774542 -0.4770007 -1.142687E-09
v -0.2759988 -0.478623 -9.666586E-10
v -0.2738226 -0.4787411 -7.906316E-10
v -0.2722003 -0.4772857 -7.177183E-10
v -0.2720822 -0.4751095 -7.906316E-10
v -0.2735376 -0.4734872 -9.666586E-10
v -0.2757138 -0.4733692 -1.142687E-09
v -0.2735755 -0.4766267 0.01006761
v -0.2739139 -0.4786974 0.009477858
v -0.2729903 -0.4800648 0.008054084
v -0.2713459 -0.479928 0.006630309
v -0.2699439 -0.4783671 0.006040563
v -0.2696056 -0.4762964 0.006630309
v -0.2705291 -0.474929 0.008054084
v -0.2721735 -0.4750658 0.009477858
v -0.2644966 -0.4809776 0.01423775
v -0.2653668 -0.4827934 0.01340372
v -0.2657272 -0.4835455 0.0113902
v -0.2653668 -0.4827934 0.009376677
v -0.2636264 -0.4791619 0.009376677
v -0.263266 -0.4784097 0.0113902
v -0.2636264 -0.4791619 0.01340372
v -0.2554177 -0.4853285 0.01006761
v -0.2568197 -0.4868894 0.009477866
v -0.2584641 -0.4870262 0.008054091
v -0.2593876 -0.4856588 0.006630315
v -0.2590493 -0.4835881 0.006040568
v -0.2576472 -0.4820272 0.006630315
v -0.2560028 -0.4818904 0.008054091
v -0.2550794 -0.4832579 0.009477866
v -0.291129 0.4881419 1.281695E-08
v -0.02146167 0.1067214 0.01739227
v -0.0273515 0.07932535 4.373246E-09
v 0.01608682 0.05756474 6.503799E-10
v -0.02254176 0.02606621 2.731769E-09
v -0.2685561 0.4805225 -0.005
v -0.2650205 0.4805225 -0.003535534
v -0.2720916 0.4805225 -0.003535534
v -0.2720916 0.4805225 0.003535533
v -0.2650205 0.4805225 0.003535534
v -0.2650205 -0.4805225 -0.003535534
v -0.2685561 -0.4805225 -0.005
v -0.2635561 -0.4805225 2.185567E-10
v -0.2720916 -0.4805225 0.003535533
v -0.2685561 -0.4805225 0.005

vt 0.4435675 0.7418832
vt 0.4439881 0.7424737
vt 0.4375193 0.7467027
vt 0.4448294 0.7436551
vt 0.4381841 0.747854
vt 0.44525 0.7442458
vt 0.4385165 0.7484298
vt 0.4771699 0.6840117
vt 0.4774746 0.6763468
vt 0.4761452 0.6763468
vt 0.4761372 0.6916187
vt 0.4759066 0.6838912
vt 0.4743847 0.6990986
vt 0.4749504 0.6913899
vt 0.4719272 0.7063835
vt 0.473283 0.6987751
vt 0.4687861 0.713407
vt 0.4709174 0.7059792
vt 0.4649886 0.7201051
vt 0.4678729 0.7129363
vt 0.4605683 0.7264166
vt 0.4641752 0.7195824
vt 0.4555643 0.7322837
vt 0.4598558 0.7258563
vt 0.4500211 0.7376527
vt 0.454952 0.7317
vt 0.4495066 0.7370589
vt 0.4796965 0.684253
vt 0.4801335 0.6763468
vt 0.4785107 0.6920761
vt 0.476588 0.6997455
vt 0.4739469 0.7071919
vt 0.4706123 0.7143484
vt 0.4666154 0.7211506
vt 0.4619933 0.7275373
vt 0.4567889 0.7334514
vt 0.45105 0.7388399
vt 0.4809598 0.6843736
vt 0.481463 0.6763468
vt 0.4796975 0.6923048
vt 0.4776897 0.700069
vt 0.4749567 0.7075963
vt 0.4715254 0.7148192
vt 0.4674288 0.7216733
vt 0.4627059 0.7280977
vt 0.4574012 0.7340353
vt 0.4515644 0.7394336
vt 0.8682104 0.950978
vt 0.8700019 0.9384815
vt 0.8817652 0.9403808
vt 0.8817097 0.9407299
vt 0.8640689 0.937916
vt 0.8699111 0.9391338
vt 0.8625475 0.9506103
vt 0.884787 0.9544308
vt 0.8791257 0.9539654
vt 0.8876318 0.9414085
vt 0.8792893 0.9531485
vt 0.8720501 0.9248151
vt 0.8833376 0.9252445
vt 0.8818702 0.9380968
vt 0.8721019 0.9242626
vt 0.8664513 0.9241879
vt 0.8704203 0.9372271
vt 0.8704926 0.9366865
vt 0.8876439 0.9382842
vt 0.8819557 0.9375259
vt 0.8833894 0.9247706
vt 0.8890281 0.9251359
vt 0.8723528 0.9214206
vt 0.8731303 0.9093564
vt 0.8846069 0.9107736
vt 0.8731578 0.9087339
vt 0.8667784 0.9200094
vt 0.8673992 0.9080988
vt 0.8724111 0.920715
vt 0.8835649 0.9231175
vt 0.8903627 0.9111059
vt 0.873449 0.8938053
vt 0.8852812 0.893177
vt 0.8848756 0.9061602
vt 0.8911983 0.8932388
vt 0.8675438 0.8942865
vt 0.8732526 0.9063278
vt 0.8906732 0.9064522
vt 0.4435675 0.6108106
vt 0.437187 0.6065665
vt 0.4375193 0.6059909
vt 0.4439881 0.61022
vt 0.4381841 0.6048396
vt 0.4448294 0.6090385
vt 0.4385165 0.6042639
vt 0.44525 0.6084478
vt 0.4771699 0.6686819
vt 0.4759066 0.6688026
vt 0.4761372 0.661075
vt 0.4749504 0.6613037
vt 0.4743847 0.6535951
vt 0.473283 0.6539186
vt 0.4719272 0.6463102
vt 0.4709174 0.6467144
vt 0.4687861 0.6392867
vt 0.4678729 0.6397574
vt 0.4649886 0.6325885
vt 0.4641752 0.6331112
vt 0.4605683 0.626277
vt 0.4598558 0.6268373
vt 0.4555643 0.6204099
vt 0.454952 0.6209937
vt 0.4500211 0.6150411
vt 0.4495066 0.6156347
vt 0.4796965 0.6684406
vt 0.4785107 0.6606175
vt 0.476588 0.6529481
vt 0.4739469 0.6455017
vt 0.4706123 0.6383452
vt 0.4666154 0.631543
vt 0.4619933 0.6251564
vt 0.4567889 0.6192423
vt 0.45105 0.6138537
vt 0.4809598 0.66832
vt 0.4796975 0.6603888
vt 0.4776897 0.6526247
vt 0.4749567 0.6450974
vt 0.4715254 0.6378745
vt 0.4674288 0.6310204
vt 0.4627059 0.6245961
vt 0.4574012 0.6186584
vt 0.4515644 0.61326
vt 0.8817652 0.8435144
vt 0.8700019 0.8454137
vt 0.8682104 0.8329172
vt 0.8876318 0.8424867
vt 0.8640689 0.8459791
vt 0.8625475 0.8332849
vt 0.8699111 0.8447613
vt 0.8680516 0.8320411
vt 0.8791257 0.8299298
vt 0.8817097 0.8431653
vt 0.884787 0.8294644
vt 0.8792893 0.8307466
vt 0.8720501 0.8590801
vt 0.8704203 0.8466681
vt 0.8818702 0.8457984
vt 0.8833894 0.8591245
vt 0.8833376 0.8586507
vt 0.8890281 0.8587593
vt 0.8664513 0.8597072
vt 0.8647454 0.8474195
vt 0.8721019 0.8596326
vt 0.8704926 0.8472086
vt 0.8819557 0.8463693
vt 0.8876439 0.8456109
vt 0.8846069 0.8731215
vt 0.8731303 0.8745388
vt 0.8723528 0.8624745
vt 0.8903627 0.8727893
vt 0.8673992 0.8757963
vt 0.8667784 0.8638857
vt 0.8731578 0.8751612
vt 0.8724111 0.8631801
vt 0.8835649 0.8607776
vt 0.8891289 0.8596345
vt 0.873449 0.8900898
vt 0.8732526 0.8775673
vt 0.8848756 0.8777349
vt 0.8911983 0.8906564
vt 0.8675438 0.8896087
vt 0.8674453 0.8773156
vt 0.8906732 0.877443
vt 0.8852812 0.8907181
vt 0.7014916 0.08686668
vt 0.7108897 0.08686668
vt 0.7061906 0.08216757
vt 0.7112813 0.08686668
vt 0.7193031 0.0835439
vt 0.7126576 0.0901894
vt 0.7208378 0.100405
vt 0.7178583 0.100405
vt 0.7178583 0.1033845
vt 0.7208378 0.1033845
vt 0.7178583 0.1063641
vt 0.7178583 0.1093436
vt 0.7208378 0.1093436
vt 0.7178583 0.1123231
vt 0.7208378 0.1123231
vt 0.7208378 0.08848685
vt 0.7178583 0.08848685
vt 0.7178583 0.09146637
vt 0.7178583 0.09444591
vt 0.7208378 0.09444591
vt 0.7178583 0.09742543
vt 0.7208378 0.09742543
vt 0.7238174 0.100405
vt 0.7208378 0.1063641
vt 0.7238174 0.1063641
vt 0.7238174 0.1093436
vt 0.7238174 0.1123231
vt 0.7238174 0.08848685
vt 0.7208378 0.09146637
vt 0.7238174 0.09444591
vt 0.7238174 0.09742543
vt 0.7267969 0.100405
vt 0.7238174 0.1033845
vt 0.7267969 0.1033845
vt 0.7267969 0.1063641
vt 0.7267969 0.1123231
vt 0.7238174 0.09146637
vt 0.7267969 0.09146637
vt 0.7267969 0.09444591
vt 0.7297764 0.100405
vt 0.7297764 0.1033845
vt 0.7297764 0.1063641
vt 0.7267969 0.1093436
vt 0.7297764 0.1123231
vt 0.7267969 0.08848685
vt 0.7297764 0.09146637
vt 0.7297764 0.09444591
vt 0.7267969 0.09742543
vt 0.7059402 0.100405
vt 0.7059402 0.1033845
vt 0.7089197 0.1033845
vt 0.7059402 0.1063641
vt 0.7089197 0.1063641
vt 0.7059402 0.1093436
vt 0.7089197 0.1093436
vt 0.7059402 0.1123231
vt 0.7089197 0.08848685
vt 0.7059402 0.08848685
vt 0.7059402 0.09146637
vt 0.7089197 0.09146637
vt 0.7059402 0.09444591
vt 0.7059402 0.09742543
vt 0.7089197 0.09742543
vt 0.7089197 0.100405
vt 0.7118992 0.1033845
vt 0.7118992 0.1063641
vt 0.7118992 0.1093436
vt 0.7089197 0.1123231
vt 0.7118992 0.08848685
vt 0.7118992 0.09146637
vt 0.7089197 0.09444591
vt 0.7118992 0.09742543
vt 0.7118992 0.100405
vt 0.7148787 0.1033845
vt 0.7148787 0.1063641
vt 0.7148787 0.1093436
vt 0.7118992 0.1123231
vt 0.7148787 0.09146637
vt 0.7118992 0.09444591
vt 0.7148787 0.09444591
vt 0.7148787 0.100405
vt 0.7148787 0.1123231
vt 0.7148787 0.08848685
vt 0.7148787 0.09742543
vt 0.7297764 0.1093436
vt 0.7297764 0.08848685
vt 0.7297764 0.09742543
vt 0.437187 0.7461271
vt 0.8680516 0.9518541
vt 0.8647454 0.9364756
vt 0.8891289 0.9242607
vt 0.8674453 0.9065794
vt 0.7061906 0.09156573
vt 0.7095134 0.0901894
vt 0.7028679 0.0901894
vt 0.7028679 0.08354393
vt 0.7095134 0.0835439
vt 0.7193031 0.0901894
vt 0.7159804 0.09156573
vt 0.7206794 0.08686668
vt 0.7126576 0.08354393
vt 0.7159804 0.08216757

vn -0.513447 -0.6975358 -0.499816
vn -0.513304 -0.6974399 -0.5000965
vn -0.4797323 -0.7213368 -0.4995298
vn -0.01117994 0.007565563 -0.9999089
vn -0.01071251 0.008017129 -0.9999105
vn -0.01130381 0.00725805 -0.9999098
vn 0.4914406 0.7130145 -0.5000963
vn 0.4915796 0.71311 -0.4998237
vn 0.4571526 0.7358511 -0.4995345
vn 0.4571526 0.735851 0.4995345
vn 0.4915796 0.7131099 0.4998238
vn 0.4914406 0.7130145 0.5000964
vn -0.866025 0.5000007 -2.312662E-07
vn -0.8660255 0.4999999 0
vn -0.01130368 0.007258089 0.9999098
vn -0.01071246 0.00801709 0.9999105
vn -0.01117985 0.007565563 0.9999089
vn -0.4797323 -0.7213368 0.4995299
vn -0.513304 -0.6974398 0.5000966
vn -0.513447 -0.6975358 0.499816
vn -0.8632438 -0.06868199 0.5000929
vn -0.8656959 -0.02758883 0.4998095
vn -0.8658634 -0.02748484 0.499525
vn -0.8528042 -0.1504398 0.5000927
vn -0.8634158 -0.0685889 0.4998087
vn -0.8346382 -0.2308359 0.5000938
vn -0.8529828 -0.150369 0.4998096
vn -0.8089127 -0.3091399 0.5000928
vn -0.8348213 -0.2307875 0.4998105
vn -0.7758585 -0.3846435 0.500093
vn -0.8090975 -0.309114 0.4998097
vn -0.7357754 -0.4566627 0.5000937
vn -0.776042 -0.3846399 0.499811
vn -0.6890278 -0.524545 0.5000932
vn -0.7359557 -0.456681 0.4998116
vn -0.6360373 -0.5876755 0.5000941
vn -0.6892021 -0.5245845 0.4998116
vn -0.5772865 -0.6454823 0.5000928
vn -0.6362035 -0.5877352 0.4998125
vn -0.5774418 -0.6455606 0.4998125
vn -0.0009542561 0.01330365 0.9999111
vn 0 0.0132376 0.9999124
vn -0.002215195 0.01315731 0.999911
vn -0.001610174 0.01344993 0.9999083
vn -0.003456986 0.01289168 0.999911
vn -0.002880198 0.01323086 0.9999083
vn -0.004668303 0.01250911 0.9999108
vn -0.004123154 0.01289218 0.9999084
vn -0.005838195 0.01201301 0.9999108
vn -0.005327797 0.0124371 0.9999084
vn -0.006955919 0.01140781 0.9999107
vn -0.006483266 0.01186985 0.9999085
vn -0.008011591 0.01069875 0.9999107
vn -0.007579127 0.01119563 0.9999086
vn -0.008995373 0.009892358 0.9999106
vn -0.008605697 0.01042052 0.9999087
vn -0.009898463 0.008995768 0.9999105
vn -0.009553485 0.009551747 0.9999087
vn -0.01041418 0.008597169 0.9999088
vn 0.860866 0.09532779 0.4998223
vn 0.864752 0.05421372 0.4992644
vn 0.8645906 0.05430755 0.4995335
vn 0.8479031 0.1767427 0.4998222
vn 0.8607001 0.09541162 0.500092
vn 0.8272568 0.2565566 0.4998248
vn 0.84773 0.1768062 0.5000933
vn 0.7991176 0.3340459 0.4998243
vn 0.82708 0.2565989 0.5000958
vn 0.7637402 0.4085097 0.4998206
vn 0.7989404 0.3340667 0.5000936
vn 0.7214407 0.4792717 0.4998219
vn 0.763563 0.4085094 0.5000916
vn 0.6726064 0.5456914 0.4998215
vn 0.7212663 0.4792506 0.5000938
vn 0.617678 0.6071681 0.4998207
vn 0.6724381 0.5456502 0.5000927
vn 0.5571535 0.6631438 0.4998204
vn 0.6175173 0.6071077 0.5000926
vn 0.557002 0.6630648 0.5000939
vn 0.8645906 0.05430754 -0.4995336
vn 0.8647519 0.05421372 -0.4992644
vn 0.860866 0.09532779 -0.4998224
vn 0.8607001 0.09541161 -0.500092
vn 0.8479031 0.1767428 -0.4998223
vn 0.84773 0.1768062 -0.5000933
vn 0.8272568 0.2565567 -0.4998249
vn 0.8270799 0.2565989 -0.5000958
vn 0.7991176 0.3340459 -0.4998243
vn 0.7989404 0.3340667 -0.5000936
vn 0.7637402 0.4085097 -0.4998206
vn 0.7635631 0.4085094 -0.5000915
vn 0.7214407 0.4792717 -0.4998219
vn 0.7212664 0.4792506 -0.5000937
vn 0.6726064 0.5456914 -0.4998215
vn 0.6724381 0.5456502 -0.5000927
vn 0.617678 0.6071682 -0.4998206
vn 0.6175174 0.6071077 -0.5000926
vn 0.5571535 0.6631438 -0.4998203
vn 0.557002 0.6630648 -0.5000938
vn -0.0006494436 0.01342008 -0.9999098
vn 0 0.0132376 -0.9999124
vn -0.001610296 0.01344994 -0.9999083
vn -0.002215344 0.01315729 -0.999911
vn -0.002880321 0.01323084 -0.9999083
vn -0.003457032 0.01289169 -0.999911
vn -0.004123158 0.01289219 -0.9999084
vn -0.004668321 0.01250916 -0.9999108
vn -0.005327817 0.01243714 -0.9999084
vn -0.005838206 0.01201304 -0.9999108
vn -0.006483347 0.01186985 -0.9999085
vn -0.006956127 0.01140775 -0.9999107
vn -0.007579341 0.01119558 -0.9999086
vn -0.008011672 0.01069875 -0.9999107
vn -0.008605767 0.01042051 -0.9999087
vn -0.008995537 0.009892273 -0.9999106
vn -0.009553654 0.009551667 -0.9999087
vn -0.009898544 0.008995762 -0.9999105
vn -0.01041422 0.008597195 -0.9999088
vn -0.8658635 -0.02748483 -0.4995248
vn -0.865696 -0.02758881 -0.4998093
vn -0.8632439 -0.06868196 -0.5000927
vn -0.8634158 -0.06858889 -0.4998087
vn -0.8528043 -0.1504398 -0.5000927
vn -0.8529828 -0.150369 -0.4998096
vn -0.8346382 -0.2308359 -0.5000938
vn -0.8348214 -0.2307875 -0.4998104
vn -0.8089127 -0.3091399 -0.5000927
vn -0.8090976 -0.3091139 -0.4998097
vn -0.7758585 -0.3846435 -0.500093
vn -0.776042 -0.3846399 -0.4998109
vn -0.7357754 -0.4566627 -0.5000938
vn -0.7359557 -0.456681 -0.4998116
vn -0.6890278 -0.524545 -0.5000932
vn -0.6892021 -0.5245845 -0.4998116
vn -0.6360373 -0.5876755 -0.5000942
vn -0.6362035 -0.5877351 -0.4998125
vn -0.5772865 -0.6454824 -0.5000927
vn -0.5774419 -0.6455606 -0.4998125
vn -0.007279118 0.04158529 -0.999108
vn -0.006650411 0.042388 -0.9990791
vn 0.133928 -0.9901397 0.04107107
vn -0.8595408 -0.1022848 -0.5007257
vn -0.8600267 -0.1016096 -0.5000295
vn -0.8603362 -0.1037529 0.4990552
vn -0.8600878 -0.1030838 0.4996226
vn -0.1691472 0.9846335 -0.04257878
vn -0.1690856 0.9842746 -0.05112341
vn -0.006848512 0.04097075 0.999136
vn -0.005706862 0.04026281 0.9991728
vn 0.8465132 0.185444 0.4990244
vn 0.8468865 0.1850062 0.498554
vn 0.8461355 0.1850387 -0.4998153
vn -0.000301743 -0.01274948 -0.9999187
vn -0.0005180874 -0.01258954 -0.9999207
vn 0.04754422 -0.9986033 -0.02284894
vn 0.05011838 -0.9985148 -0.02136379
vn -0.8578395 -0.1190874 -0.4999295
vn -0.8586316 -0.1184199 0.4987256
vn -0.8591287 -0.117713 0.4980378
vn -0.07786804 0.9965262 0.02952982
vn -0.07531866 0.9966992 0.03029307
vn -0.07302085 0.9967415 0.03427051
vn -0.0002128108 -0.01285936 0.9999173
vn 0.8612605 0.09054449 0.5000319
vn 0.8604982 0.09126927 -0.5012102
vn 0.8609451 0.09063367 -0.5005587
vn -0.001149739 0.01523617 -0.9998832
vn -0.000896218 0.01552789 -0.9998791
vn 0.1393197 -0.9900212 -0.02116695
vn 0.1509125 -0.9882041 -0.02603966
vn 0.1592486 -0.9867542 -0.03091915
vn -0.8648349 -0.04652356 -0.4998922
vn -0.8642285 -0.04504853 -0.5010786
vn -0.8648543 -0.04560018 0.4999472
vn -0.8646219 -0.04506904 0.5003976
vn -0.2103704 0.9769682 0.03574162
vn -0.1900709 0.9814832 0.02374432
vn -0.1857334 0.9824401 0.01773336
vn -0.001127603 0.01523798 0.9998832
vn -0.0008854627 0.01552866 0.999879
vn 0.8624849 0.08046523 0.4996446
vn 0.8622894 0.08002082 0.5000537
vn 0.8624583 0.0807652 -0.4996425
vn -0.0003823812 0.01528028 -0.9998831
vn -0.03190453 -0.9994909 2.443318E-09
vn -0.04243138 -0.9987087 -0.01829037
vn -0.866078 -0.006371664 -0.4998676
vn -0.8663734 -0.005810732 -0.499363
vn -0.8660779 -0.006371661 0.4998678
vn -0.8663732 -0.005810726 0.4993632
vn 0.003618799 0.9995877 -0.01864891
vn -0.007137026 0.9999745 5.571746E-10
vn -0.0003825594 0.01528028 0.9998831
vn 0.8654115 0.03446519 0.499875
vn 0.8654495 0.03453889 0.4998042
vn 0.8654115 0.03446517 -0.4998751
vn 0.8654494 0.03453885 -0.4998043
vn -0.513447 0.6975358 -0.499816
vn -0.4798696 0.7214414 -0.4992469
vn -0.4797323 0.7213368 -0.4995298
vn -0.01117994 -0.007565563 -0.9999089
vn -0.01174572 -0.006781302 -0.999908
vn -0.01130381 -0.00725805 -0.9999098
vn 0.4914406 -0.7130145 -0.5000963
vn 0.4570215 -0.7357489 -0.4998049
vn 0.4914406 -0.7130145 0.5000964
vn 0.4915796 -0.7131099 0.4998238
vn 0.4571526 -0.735851 0.4995345
vn -0.866025 -0.5000007 -2.312662E-07
vn -0.01117985 -0.007565563 0.9999089
vn -0.01071246 -0.00801709 0.9999105
vn -0.01130368 -0.007258089 0.9999098
vn -0.513447 0.6975358 0.499816
vn -0.513304 0.6974398 0.5000966
vn -0.4797323 0.7213368 0.4995299
vn 0 1 0
vn -0.8658634 0.02748484 0.499525
vn -0.8656958 0.02758884 0.4998095
vn -0.8632438 0.06868199 0.5000929
vn -0.8634158 0.0685889 0.4998087
vn -0.8528042 0.1504398 0.5000927
vn -0.8529828 0.150369 0.4998096
vn -0.8346382 0.2308359 0.5000938
vn -0.8348213 0.2307875 0.4998105
vn -0.8089127 0.3091399 0.5000928
vn -0.8090975 0.309114 0.4998097
vn -0.7758585 0.3846435 0.500093
vn -0.776042 0.3846399 0.499811
vn -0.7357754 0.4566627 0.5000937
vn -0.7359557 0.456681 0.4998116
vn -0.6890278 0.524545 0.5000932
vn -0.6892021 0.5245845 0.4998116
vn -0.6360373 0.5876755 0.5000941
vn -0.6362035 0.5877352 0.4998125
vn -0.5772865 0.6454823 0.5000928
vn -0.5774418 0.6455606 0.4998125
vn -0.0006493895 -0.01342007 0.9999098
vn 0 -0.0132376 0.9999124
vn -0.001610174 -0.01344993 0.9999083
vn -0.002215195 -0.01315731 0.999911
vn -0.002880198 -0.01323086 0.9999083
vn -0.003456986 -0.01289168 0.999911
vn -0.004123154 -0.01289218 0.9999084
vn -0.004668303 -0.01250911 0.9999108
vn -0.005327797 -0.0124371 0.9999084
vn -0.005838195 -0.01201301 0.9999108
vn -0.006483266 -0.01186985 0.9999085
vn -0.006955919 -0.01140781 0.9999107
vn -0.007579127 -0.01119563 0.9999086
vn -0.008011591 -0.01069875 0.9999107
vn -0.008605697 -0.01042052 0.9999087
vn -0.008995373 -0.009892358 0.9999106
vn -0.009553485 -0.009551747 0.9999087
vn -0.009898463 -0.008995768 0.9999105
vn -0.01041418 -0.008597169 0.9999088
vn 0.8645906 -0.05430755 0.4995336
vn 0.864752 -0.05421372 0.4992644
vn 0.860866 -0.09532779 0.4998224
vn 0.8607 -0.09541162 0.500092
vn 0.8479031 -0.1767428 0.4998223
vn 0.84773 -0.1768062 0.5000933
vn 0.8272568 -0.2565566 0.4998248
vn 0.82708 -0.2565989 0.5000958
vn 0.7991176 -0.3340459 0.4998243
vn 0.7989404 -0.3340667 0.5000936
vn 0.7637402 -0.4085096 0.4998206
vn 0.763563 -0.4085094 0.5000916
vn 0.7214407 -0.4792716 0.4998219
vn 0.7212663 -0.4792506 0.5000938
vn 0.6726064 -0.5456914 0.4998215
vn 0.6724381 -0.5456502 0.5000928
vn 0.617678 -0.6071681 0.4998207
vn 0.6175173 -0.6071077 0.5000926
vn 0.5571535 -0.6631438 0.4998204
vn 0.557002 -0.6630648 0.5000939
vn 0.8645906 -0.05430754 -0.4995336
vn 0.8607001 -0.09541161 -0.500092
vn 0.860866 -0.09532779 -0.4998224
vn 0.84773 -0.1768062 -0.5000933
vn 0.8479031 -0.1767428 -0.4998223
vn 0.8270799 -0.2565989 -0.5000958
vn 0.8272568 -0.2565567 -0.4998249
vn 0.7989404 -0.3340667 -0.5000936
vn 0.7991176 -0.3340459 -0.4998243
vn 0.7635631 -0.4085094 -0.5000915
vn 0.7637402 -0.4085097 -0.4998206
vn 0.7212664 -0.4792506 -0.5000937
vn 0.7214407 -0.4792717 -0.4998219
vn 0.6724381 -0.5456502 -0.5000927
vn 0.6726064 -0.5456914 -0.4998215
vn 0.6175174 -0.6071077 -0.5000926
vn 0.617678 -0.6071682 -0.4998206
vn 0.557002 -0.6630648 -0.5000938
vn 0.5571535 -0.6631438 -0.4998203
vn 0.4915796 -0.71311 -0.4998237
vn -0.0006494436 -0.01342008 -0.9999098
vn -0.001610296 -0.01344994 -0.9999083
vn -0.002880321 -0.01323084 -0.9999083
vn -0.002215344 -0.01315729 -0.999911
vn -0.004123158 -0.01289219 -0.9999084
vn -0.003457032 -0.01289169 -0.999911
vn -0.005327817 -0.01243714 -0.9999084
vn -0.004668321 -0.01250916 -0.9999108
vn -0.006483347 -0.01186985 -0.9999085
vn -0.005838206 -0.01201304 -0.9999108
vn -0.007579341 -0.01119558 -0.9999086
vn -0.006956127 -0.01140775 -0.9999107
vn -0.008605767 -0.01042051 -0.9999087
vn -0.008011672 -0.01069875 -0.9999107
vn -0.009553654 -0.009551667 -0.9999087
vn -0.008995537 -0.009892273 -0.9999106
vn -0.01041422 -0.008597195 -0.9999088
vn -0.009898544 -0.008995762 -0.9999105
vn -0.01071251 -0.008017129 -0.9999105
vn -0.8658635 0.02748483 -0.4995248
vn -0.8634158 0.06858889 -0.4998087
vn -0.8632439 0.06868196 -0.5000927
vn -0.8529828 0.150369 -0.4998096
vn -0.8528043 0.1504398 -0.5000927
vn -0.8348214 0.2307875 -0.4998104
vn -0.8346382 0.2308359 -0.5000938
vn -0.8090976 0.3091139 -0.4998097
vn -0.8089127 0.3091399 -0.5000927
vn -0.776042 0.3846399 -0.4998109
vn -0.7758585 0.3846435 -0.500093
vn -0.7359557 0.456681 -0.4998116
vn -0.7357754 0.4566627 -0.5000938
vn -0.6892021 0.5245845 -0.4998116
vn -0.6890278 0.524545 -0.5000932
vn -0.6362035 0.5877351 -0.4998125
vn -0.6360373 0.5876755 -0.5000942
vn -0.5774419 0.6455606 -0.4998125
vn -0.5772865 0.6454824 -0.5000927
vn -0.513304 0.6974399 -0.5000965
vn -0.007279118 -0.04158529 -0.999108
vn -0.006650411 -0.042388 -0.9990791
vn 0.1465943 0.9890464 0.01713248
vn 0.1465993 0.9890798 0.01516235
vn -0.8595408 0.1022848 -0.5007257
vn -0.8590549 0.10296 -0.501422
vn -0.8603362 0.1037529 0.4990552
vn -0.8605847 0.104422 0.4984878
vn -0.1872396 -0.9821196 -0.01955735
vn -0.006848512 -0.04097075 0.999136
vn -0.005706862 -0.04026281 0.9991728
vn 0.8465132 -0.185444 0.4990244
vn 0.8468865 -0.1850062 0.498554
vn 0.8461355 -0.1850387 -0.4998153
vn -0.000301743 0.01274948 -0.9999187
vn 0.02261759 0.999449 -0.02429312
vn -0.8578395 0.1190874 -0.4999295
vn -0.8586317 0.1184199 0.4987256
vn -0.8591287 0.117713 0.4980378
vn -0.07786804 -0.9965262 0.02952982
vn -0.07980681 -0.9964326 0.02743823
vn -0.08393187 -0.9960935 0.02744401
vn -0.0002128108 0.01285936 0.9999173
vn 0.8612606 -0.09054448 0.5000319
vn 0.8604982 -0.09126927 -0.5012102
vn 0.8600513 -0.09190486 -0.5018617
vn -0.001149739 -0.01523617 -0.9998832
vn -0.000896218 -0.01552789 -0.9998791
vn 0.07735041 0.9969386 -0.01141336
vn -0.8648349 0.04652356 -0.4998922
vn -0.8642285 0.04504853 -0.5010786
vn -0.8648543 0.04560018 0.4999472
vn -0.8650866 0.04613132 0.4994969
vn -0.1855076 -0.9819887 0.03584826
vn -0.001127603 -0.01523798 0.9998832
vn -0.001369743 -0.01494729 0.9998873
vn 0.8624849 -0.08046523 0.4996446
vn 0.8626804 -0.08090964 0.4992356
vn 0.8624583 -0.08076521 -0.4996425
vn -0.0003823812 -0.01528028 -0.9998831
vn -0.03190453 0.9994909 2.443318E-09
vn -0.04243138 0.9987087 0.01829038
vn -0.866078 0.006371664 -0.4998676
vn -0.8657827 0.006932596 -0.5003722
vn -0.8660779 0.00637166 0.4998678
vn -0.8663732 0.005810726 0.4993632
vn 0.003618799 -0.9995877 -0.01864891
vn -0.007137025 -0.9999745 3.714498E-10
vn -0.0003825597 -0.01528028 0.9998831
vn 0.8654115 -0.03446519 0.499875
vn 0.8654115 -0.03446517 -0.4998751
vn 0.8654494 -0.03453885 -0.4998043
vn 0 -1 0
vn -0.4197306 0.8343183 -0.3574061
vn -0.9377443 0.3100397 -0.1565607
vn -0.8823135 -0.4438607 0.1565586
vn -0.2931785 -0.8867413 0.357402
vn 0.4197164 -0.8343259 0.3574052
vn 0.9377474 -0.3100318 0.1565571
vn 0.8823153 0.4438571 -0.1565586
vn 0.2931762 0.8867396 -0.3574082
vn -0.3826576 0.3302358 -0.8628543
vn -0.9215075 0.08922818 -0.3779715
vn -0.8985469 -0.223051 0.3779705
vn -0.3302388 -0.3826526 0.8628553
vn 0.3826469 -0.3302369 0.8628587
vn 0.9215106 -0.08922289 0.377965
vn 0.898548 0.223051 -0.377968
vn 0.3302415 0.3826528 -0.8628542
vn -0.3302391 -0.3826528 -0.8628552
vn -0.8985468 -0.2230509 -0.3779708
vn -0.9215077 0.08922753 0.3779709
vn -0.3826555 0.3302352 0.8628554
vn 0.3302416 0.382652 0.8628545
vn 0.8985481 0.2230486 0.377969
vn 0.9215107 -0.08922608 -0.3779639
vn 0.3826473 -0.3302379 -0.8628581
vn -0.2931708 -0.8867415 -0.3574079
vn -0.8823166 -0.4438549 -0.1565571
vn -0.9377458 0.3100362 0.1565576
vn -0.4197156 0.834326 0.3574058
vn 0.293172 0.8867422 0.3574051
vn 0.8823121 0.4438633 0.1565588
vn 0.9377481 -0.3100302 -0.1565565
vn 0.4197057 -0.8343297 -0.3574089
vn 0.6236589 0.6952046 -0.3574075
vn -0.05349734 0.9862183 -0.1565616
vn -0.7351905 0.6595341 0.1565555
vn -0.9325777 -0.05058779 0.3574069
vn -0.6236522 -0.6952103 0.3574083
vn 0.05351058 -0.9862183 0.1565568
vn 0.7351909 -0.6595333 -0.1565575
vn 0.9325769 0.05059379 -0.3574082
vn 0.1678461 0.4767682 -0.8628556
vn -0.2531684 0.890534 -0.3779617
vn -0.5355316 0.7552191 0.3779551
vn -0.4767676 0.1678475 0.8628557
vn -0.1678475 -0.47677 0.8628543
vn 0.2531605 -0.8905332 0.3779687
vn 0.5355315 -0.7552105 -0.3779724
vn 0.4767672 -0.1678488 -0.8628557
vn -0.4767663 0.1678466 -0.8628565
vn -0.5355285 0.7552158 -0.3779661
vn -0.2531622 0.8905336 0.3779667
vn 0.1678444 0.4767684 0.8628558
vn 0.4767691 -0.1678489 0.8628546
vn 0.5355324 -0.7552122 0.3779678
vn 0.2531584 -0.8905317 -0.377974
vn -0.1678464 -0.4767681 -0.8628556
vn -0.9325765 -0.05060153 -0.3574082
vn -0.7351972 0.6595258 -0.156559
vn -0.05349426 0.9862189 0.1565587
vn 0.6236569 0.6952077 0.3574049
vn 0.9325776 0.0505889 0.3574071
vn 0.7351935 -0.65953 0.1565588
vn 0.05349696 -0.9862183 -0.1565617
vn -0.6236589 -0.6952046 -0.3574076
vn -0.05350986 0.9862183 -0.1565569
vn 0.05349694 -0.9862183 0.1565616
vn 0.0535106 -0.9862183 -0.1565568
vn -0.4197306 -0.8343183 -0.3574061
vn -0.9377443 -0.3100397 -0.1565607
vn -0.8823135 0.4438607 0.1565586
vn -0.2931785 0.8867413 0.357402
vn 0.4197164 0.8343259 0.3574052
vn 0.9377474 0.3100318 0.1565571
vn 0.8823153 -0.4438571 -0.1565586
vn 0.2931762 -0.8867396 -0.3574082
vn -0.3826576 -0.3302358 -0.8628543
vn -0.9215075 -0.08922818 -0.3779715
vn -0.8985469 0.223051 0.3779705
vn -0.3302388 0.3826526 0.8628553
vn 0.3826469 0.3302369 0.8628587
vn 0.9215106 0.08922289 0.377965
vn 0.898548 -0.223051 -0.377968
vn 0.3302415 -0.3826528 -0.8628542
vn -0.3302391 0.3826528 -0.8628552
vn -0.8985468 0.2230509 -0.3779708
vn -0.9215077 -0.08922753 0.3779709
vn -0.3826555 -0.3302352 0.8628554
vn 0.3302416 -0.382652 0.8628545
vn 0.8985481 -0.2230486 0.377969
vn 0.9215107 0.08922608 -0.3779639
vn 0.3826473 0.3302379 -0.8628581
vn -0.2931708 0.8867415 -0.3574079
vn -0.8823166 0.4438549 -0.1565571
vn -0.9377458 -0.3100362 0.1565576
vn -0.4197156 -0.834326 0.3574058
vn 0.293172 -0.8867422 0.3574051
vn 0.8823121 -0.4438633 0.1565588
vn 0.9377481 0.3100302 -0.1565565
vn 0.4197057 0.8343297 -0.3574089
vn 0.6236589 -0.6952046 -0.3574075
vn -0.05349734 -0.9862183 -0.1565616
vn -0.7351905 -0.6595341 0.1565555
vn -0.9325777 0.05058779 0.3574069
vn -0.6236522 0.6952103 0.3574083
vn 0.05351058 0.9862183 0.1565568
vn 0.7351909 0.6595333 -0.1565575
vn 0.9325769 -0.05059379 -0.3574082
vn 0.1678461 -0.4767682 -0.8628556
vn -0.2531684 -0.890534 -0.3779617
vn -0.5355316 -0.7552191 0.3779551
vn -0.4767676 -0.1678475 0.8628557
vn -0.1678475 0.47677 0.8628543
vn 0.2531605 0.8905332 0.3779687
vn 0.5355315 0.7552105 -0.3779724
vn 0.4767672 0.1678488 -0.8628557
vn -0.4767663 -0.1678466 -0.8628565
vn -0.5355285 -0.7552158 -0.3779661
vn -0.2531622 -0.8905336 0.3779667
vn 0.1678444 -0.4767684 0.8628558
vn 0.4767691 0.1678489 0.8628546
vn 0.5355324 0.7552122 0.3779678
vn 0.2531584 0.8905317 -0.377974
vn -0.1678464 0.4767681 -0.8628556
vn -0.9325765 0.05060154 -0.3574082
vn -0.7351972 -0.6595258 -0.156559
vn -0.05349426 -0.9862189 0.1565587
vn -0.05350986 -0.9862183 0.156557
vn 0.6236569 -0.6952077 0.3574049
vn 0.9325776 -0.05058891 0.3574071
vn 0.7351935 0.65953 0.1565588
vn 0.05349696 0.9862183 -0.1565617
vn -0.6236589 0.6952046 -0.3574076
vn -0.05350985 -0.9862183 -0.156557
vn 0.05349694 0.9862183 0.1565616
vn 0.0535106 0.9862183 -0.1565568
vn -0.4798696 -0.7214414 -0.4992469
vn -0.01174572 0.006781302 -0.999908
vn -0.01174552 0.006781419 0.999908
vn -0.4798695 -0.7214414 0.4992468
vn -0.007907825 0.04078258 -0.9991367
vn 0.1592792 -0.9865202 0.03752258
vn 0.1465993 -0.9890798 0.01516235
vn 0.1465943 -0.9890464 0.01713248
vn 0.1465894 -0.989013 0.01910261
vn -0.8590549 -0.10296 -0.501422
vn -0.8605847 -0.104422 0.4984878
vn -0.1692089 0.9849924 -0.03403415
vn -0.1917265 0.9786361 -0.0742451
vn -0.1872396 0.9821196 -0.01955735
vn -0.007990162 0.04167869 0.9990991
vn 0.84614 0.1858819 0.4994948
vn 0.8460665 0.1848271 -0.5000106
vn 0.03793668 -0.9983799 -0.04240857
vn 0.0226176 -0.999449 -0.02429312
vn 0.04497006 -0.9986919 -0.02433408
vn -0.8581346 -0.1191268 0.4994134
vn -0.07664768 0.996696 0.0268735
vn -0.07980681 0.9964326 0.02743823
vn -0.08393187 0.9960935 0.02744401
vn 0.861343 0.0904308 0.4999106
vn 0.8600513 0.09190486 -0.5018617
vn -0.001403259 0.01494445 -0.9998873
vn 0.1624787 -0.9862279 -0.03090722
vn 0.1225693 -0.9923946 -0.01139508
vn 0.07735041 -0.9969386 -0.01141336
vn -0.8654414 -0.04799858 -0.4987057
vn -0.8650866 -0.04613132 0.4994969
vn -0.1813868 0.9833419 0.01172313
vn -0.1755274 0.9844046 0.01172844
vn -0.1855076 0.9819887 0.03584826
vn -0.001369743 0.01494729 0.9998873
vn 0.8626804 0.08090964 0.4992356
vn 0.8625163 0.08089425 -0.4995216
vn -0.08120657 -0.9966973 6.218975E-09
vn -0.05295824 -0.9979265 0.03658075
vn -0.05295823 -0.9979265 -0.03658074
vn -0.8657827 -0.006932596 -0.5003722
vn -0.8657826 -0.006932595 0.5003724
vn 0.01437462 0.9992008 -0.03729782
vn 0.0432824 0.9990629 -3.378979E-09
vn 0.01437462 0.9992008 0.03729781
vn -0.8660255 -0.4999999 0
vn -0.01174552 -0.006781419 0.999908
vn -0.4798696 0.7214414 0.4992469
vn 0.8647519 -0.05421372 -0.4992644
vn 0 -0.0132376 -0.9999124
vn -0.865696 0.02758881 -0.4998093
vn -0.007907825 -0.04078258 -0.9991367
vn 0.1592792 0.9865202 0.03752258
vn 0.133928 0.9901397 0.04107107
vn 0.1465894 0.989013 0.01910261
vn -0.8600267 0.1016096 -0.5000295
vn -0.8600878 0.1030838 0.4996226
vn -0.1917265 -0.9786361 -0.0742451
vn -0.1692089 -0.9849924 -0.03403415
vn -0.1691472 -0.9846335 -0.04257878
vn -0.1690856 -0.9842746 -0.05112341
vn -0.007990162 -0.04167869 0.9990991
vn 0.84614 -0.1858819 0.4994948
vn 0.8460665 -0.1848271 -0.5000106
vn -0.0005180874 0.01258954 -0.9999207
vn 0.03793668 0.9983799 -0.04240858
vn 0.05011838 0.9985148 -0.02136379
vn 0.04754423 0.9986033 -0.02284894
vn 0.04497007 0.9986919 -0.02433408
vn -0.8581347 0.1191268 0.4994134
vn -0.07664768 -0.996696 0.0268735
vn -0.07531866 -0.9966992 0.03029307
vn -0.07302085 -0.9967415 0.03427051
vn 0.861343 -0.09043078 0.4999106
vn 0.8609451 -0.09063367 -0.5005587
vn -0.001403259 -0.01494445 -0.9998873
vn 0.1225693 0.9923946 -0.01139508
vn 0.1393197 0.9900212 -0.02116695
vn 0.1509125 0.9882041 -0.02603966
vn 0.1592486 0.9867542 -0.03091916
vn 0.1624787 0.9862279 -0.03090723
vn -0.8654414 0.04799858 -0.4987057
vn -0.8646219 0.04506904 0.5003976
vn -0.1900709 -0.9814832 0.02374431
vn -0.1857334 -0.9824401 0.01773335
vn -0.1755274 -0.9844046 0.01172844
vn -0.1813868 -0.9833419 0.01172313
vn -0.2103704 -0.9769682 0.03574162
vn -0.0008854627 -0.01552866 0.999879
vn 0.8622894 -0.08002082 0.5000537
vn 0.8625163 -0.08089425 -0.4995216
vn -0.05295824 0.9979265 0.03658076
vn -0.08120657 0.9966973 6.218974E-09
vn -0.05295823 0.9979265 -0.03658074
vn -0.8663734 0.005810732 -0.499363
vn -0.8657826 0.006932594 0.5003724
vn 0.01437462 -0.9992008 -0.03729782
vn 0.01437462 -0.9992008 0.03729781
vn 0.0432824 -0.9990629 -3.378979E-09
vn 0.8654495 -0.03453889 0.4998042
vn -0.05350986 0.9862183 0.156557

usemtl LowPolyRPGWeapons_Lite_MAIN
f 7/7/14 5/5/13 9/5/13
f 77/53/141 76/52/141 75/51/141
f 91/67/162 90/66/161 89/65/160
f 126/88/209 117/87/209 125/90/209
f 52/29/216 62/9/216 43/39/216
f 189/137/343 187/135/343 190/138/343
f 199/147/350 198/146/350 197/145/350
f 201/149/356 195/143/355 203/151/354
f 210/157/363 206/154/363 209/154/363
f 212/159/368 208/156/368 214/161/368
f 11/3/13 9/5/13 488/259/13
f 73/49/528 74/50/528 76/52/528
f 72/48/535 78/54/535 82/58/535
f 489/260/536 80/56/536 78/54/536
f 83/59/540 84/60/540 87/63/540
f 93/69/541 92/68/541 84/60/541
f 490/261/546 89/65/160 88/64/545
f 95/71/170 98/73/171 100/75/550
f 103/78/552 97/72/552 96/72/552
f 104/77/556 102/77/178 491/262/555
f 99/74/557 101/76/557 94/70/557
f 105/79/561 108/79/561 110/83/561
f 106/80/562 109/82/562 105/79/562
f 492/263/567 112/84/567 111/84/567
f 114/81/568 113/85/568 112/84/568
f 122/92/569 125/90/209 120/90/209
f 33/29/216 43/39/216 13/9/216
f 183/131/576 186/134/576 182/130/576
f 188/136/577 191/139/577 186/134/577
f 193/141/581 187/135/581 184/132/581
f 194/142/589 200/148/589 198/146/589
f 204/152/596 203/151/354 205/153/595
f 211/158/604 213/160/603 207/155/602
f 216/163/610 215/162/608 217/162/609
f 223/168/616 221/164/616 218/164/616
f 227/171/617 222/167/617 221/164/617
f 228/166/621 225/165/621 226/170/621
f 224/169/622 219/165/622 225/165/622
f 494/265/216 493/264/216 231/173/216
f 495/266/216 230/172/216 493/264/216
f 496/267/216 232/174/216 230/172/216
f 497/268/216 231/173/216 232/174/216
f 499/270/387 498/269/387 235/177/387
f 500/271/387 235/177/387 498/269/387
f 502/273/387 501/272/387 234/176/387
f 233/175/387 234/176/387 501/272/387
f 3/3/3 2/2/2 1/1/1
f 1/1/1 488/259/523 3/3/3
f 5/5/6 4/4/5 2/2/4
f 2/2/4 3/3/524 5/5/6
f 7/7/9 6/6/8 4/4/7
f 4/4/7 5/5/9 7/7/9
f 8/4/12 6/6/11 7/7/10
f 7/7/10 9/5/10 8/4/12
f 10/2/17 8/4/16 9/5/15
f 9/5/15 11/3/525 10/2/17
f 1/1/20 10/2/19 11/3/18
f 11/3/18 488/259/526 1/1/20
f 14/10/23 13/9/22 12/8/21
f 12/8/21 16/12/25 14/10/23
f 16/12/25 12/8/21 15/11/24
f 15/11/24 18/14/27 16/12/25
f 18/14/27 15/11/24 17/13/26
f 17/13/26 20/16/29 18/14/27
f 20/16/29 17/13/26 19/15/28
f 19/15/28 22/18/31 20/16/29
f 22/18/31 19/15/28 21/17/30
f 21/17/30 24/20/33 22/18/31
f 24/20/33 21/17/30 23/19/32
f 23/19/32 26/22/35 24/20/33
f 26/22/35 23/19/32 25/21/34
f 25/21/34 28/24/37 26/22/35
f 28/24/37 25/21/34 27/23/36
f 27/23/36 30/26/39 28/24/37
f 30/26/39 27/23/36 29/25/38
f 29/25/38 31/27/40 30/26/39
f 31/27/40 29/25/38 10/2/19
f 10/2/19 1/1/20 31/27/40
f 13/9/41 33/29/42 32/28/41
f 32/28/41 12/8/44 13/9/41
f 12/8/44 32/28/41 34/30/43
f 34/30/43 15/11/46 12/8/44
f 15/11/46 34/30/43 35/31/45
f 35/31/45 17/13/48 15/11/46
f 17/13/48 35/31/45 36/32/47
f 36/32/47 19/15/50 17/13/48
f 19/15/50 36/32/47 37/33/49
f 37/33/49 21/17/52 19/15/50
f 21/17/52 37/33/49 38/34/51
f 38/34/51 23/19/54 21/17/52
f 23/19/54 38/34/51 39/35/53
f 39/35/53 25/21/56 23/19/54
f 25/21/56 39/35/53 40/36/55
f 40/36/55 27/23/58 25/21/56
f 27/23/58 40/36/55 41/37/57
f 41/37/57 29/25/59 27/23/58
f 29/25/59 41/37/57 8/4/16
f 8/4/16 10/2/17 29/25/59
f 33/29/62 43/39/61 42/38/60
f 42/38/60 32/28/64 33/29/62
f 32/28/64 42/38/60 44/40/63
f 44/40/63 34/30/66 32/28/64
f 34/30/66 44/40/63 45/41/65
f 45/41/65 35/31/68 34/30/66
f 35/31/68 45/41/65 46/42/67
f 46/42/67 36/32/70 35/31/68
f 36/32/70 46/42/67 47/43/69
f 47/43/69 37/33/72 36/32/70
f 37/33/72 47/43/69 48/44/71
f 48/44/71 38/34/74 37/33/72
f 38/34/74 48/44/71 49/45/73
f 49/45/73 39/35/76 38/34/74
f 39/35/76 49/45/73 50/46/75
f 50/46/75 40/36/78 39/35/76
f 40/36/78 50/46/75 51/47/77
f 51/47/77 41/37/79 40/36/78
f 41/37/79 51/47/77 6/6/11
f 6/6/11 8/4/12 41/37/79
f 42/38/82 43/39/81 52/29/80
f 52/29/80 53/28/83 42/38/82
f 44/40/84 42/38/82 53/28/83
f 53/28/83 54/30/85 44/40/84
f 45/41/86 44/40/84 54/30/85
f 54/30/85 55/31/87 45/41/86
f 46/42/88 45/41/86 55/31/87
f 55/31/87 56/32/89 46/42/88
f 47/43/90 46/42/88 56/32/89
f 56/32/89 57/33/91 47/43/90
f 48/44/92 47/43/90 57/33/91
f 57/33/91 58/34/93 48/44/92
f 49/45/94 48/44/92 58/34/93
f 58/34/93 59/35/95 49/45/94
f 50/46/96 49/45/94 59/35/95
f 59/35/95 60/36/97 50/46/96
f 51/47/98 50/46/96 60/36/97
f 60/36/97 61/37/99 51/47/98
f 6/6/8 51/47/98 61/37/99
f 61/37/99 4/4/7 6/6/8
f 53/28/100 52/29/101 62/9/100
f 62/9/100 63/8/102 53/28/100
f 54/30/103 53/28/100 63/8/102
f 63/8/102 64/11/104 54/30/103
f 55/31/105 54/30/103 64/11/104
f 64/11/104 65/13/106 55/31/105
f 56/32/107 55/31/105 65/13/106
f 65/13/106 66/15/108 56/32/107
f 57/33/109 56/32/107 66/15/108
f 66/15/108 67/17/110 57/33/109
f 58/34/111 57/33/109 67/17/110
f 67/17/110 68/19/112 58/34/111
f 59/35/113 58/34/111 68/19/112
f 68/19/112 69/21/114 59/35/113
f 60/36/115 59/35/113 69/21/114
f 69/21/114 70/23/116 60/36/115
f 61/37/117 60/36/115 70/23/116
f 70/23/116 71/25/118 61/37/117
f 4/4/5 61/37/117 71/25/118
f 71/25/118 2/2/4 4/4/5
f 63/8/121 62/9/120 14/10/119
f 14/10/119 16/12/122 63/8/121
f 64/11/123 63/8/121 16/12/122
f 16/12/122 18/14/124 64/11/123
f 65/13/125 64/11/123 18/14/124
f 18/14/124 20/16/126 65/13/125
f 66/15/127 65/13/125 20/16/126
f 20/16/126 22/18/128 66/15/127
f 67/17/129 66/15/127 22/18/128
f 22/18/128 24/20/130 67/17/129
f 68/19/131 67/17/129 24/20/130
f 24/20/130 26/22/132 68/19/131
f 69/21/133 68/19/131 26/22/132
f 26/22/132 28/24/134 69/21/133
f 70/23/135 69/21/133 28/24/134
f 28/24/134 30/26/136 70/23/135
f 71/25/137 70/23/135 30/26/136
f 30/26/136 31/27/138 71/25/137
f 2/2/2 71/25/137 31/27/138
f 31/27/138 1/1/1 2/2/2
f 74/50/139 73/49/140 72/48/139
f 72/48/139 82/58/527 74/50/139
f 72/48/142 73/49/143 76/52/142
f 76/52/142 78/54/532 72/48/142
f 78/54/144 76/52/145 77/53/144
f 77/53/144 489/260/533 78/54/144
f 78/54/146 80/56/147 79/55/146
f 79/55/146 82/58/534 78/54/146
f 77/53/148 75/51/149 80/56/148
f 80/56/148 489/260/537 77/53/148
f 75/51/150 81/57/151 79/55/150
f 79/55/150 80/56/538 75/51/150
f 81/57/152 74/50/152 82/58/152
f 82/58/152 79/55/539 81/57/152
f 85/61/153 84/60/154 83/59/153
f 83/59/153 88/64/153 85/61/153
f 86/62/155 87/63/156 84/60/155
f 84/60/155 92/68/542 86/62/155
f 88/64/157 83/59/157 87/63/157
f 87/63/157 490/261/157 88/64/157
f 87/63/158 86/62/159 89/65/158
f 89/65/158 490/261/543 87/63/158
f 86/62/163 92/68/163 91/67/163
f 91/67/163 89/65/163 86/62/163
f 92/68/164 93/69/164 90/66/164
f 90/66/164 91/67/547 92/68/164
f 90/66/165 93/69/166 84/60/165
f 84/60/165 85/61/548 90/66/165
f 96/72/167 95/71/168 94/70/167
f 94/70/167 104/77/549 96/72/167
f 97/72/169 98/73/171 95/71/170
f 95/71/170 96/72/551 97/72/169
f 95/71/172 100/75/173 99/74/172
f 99/74/172 94/70/553 95/71/172
f 99/74/174 100/75/175 98/73/174
f 98/73/174 101/76/554 99/74/174
f 104/77/556 94/70/177 101/76/176
f 101/76/176 102/77/178 104/77/556
f 101/76/179 98/73/180 97/72/179
f 97/72/179 102/77/558 101/76/179
f 102/77/181 97/72/182 103/78/181
f 103/78/181 491/262/559 102/77/181
f 103/78/183 96/72/183 104/77/183
f 104/77/183 491/262/560 103/78/183
f 107/81/184 106/80/184 105/79/184
f 105/79/184 111/84/168 107/81/184
f 115/80/563 108/79/186 105/79/185
f 105/79/185 109/82/186 115/80/563
f 111/84/187 105/79/188 110/83/187
f 110/83/187 492/263/564 111/84/187
f 110/83/189 108/79/190 112/84/189
f 112/84/189 492/263/565 110/83/189
f 111/84/191 112/84/192 113/85/191
f 113/85/191 107/81/566 111/84/191
f 108/79/193 115/80/193 114/81/193
f 114/81/193 112/84/180 108/79/193
f 114/81/194 115/80/195 109/82/194
f 109/82/194 113/85/194 114/81/194
f 109/82/196 106/80/197 107/81/196
f 107/81/196 113/85/196 109/82/196
f 118/88/200 117/87/199 116/86/198
f 116/86/198 119/89/334 118/88/200
f 120/90/203 118/88/202 119/89/201
f 119/89/201 121/91/314 120/90/203
f 122/92/205 120/90/205 121/91/204
f 121/91/204 124/93/295 122/92/205
f 122/92/208 124/93/207 123/91/206
f 123/91/206 125/90/208 122/92/208
f 125/90/212 123/91/211 127/89/210
f 127/89/210 126/88/570 125/90/212
f 126/88/215 127/89/214 116/86/213
f 116/86/213 117/87/571 126/88/215
f 128/94/219 13/9/218 14/10/217
f 14/10/217 129/95/220 128/94/219
f 130/96/221 128/94/219 129/95/220
f 129/95/220 131/97/222 130/96/221
f 132/98/223 130/96/221 131/97/222
f 131/97/222 133/99/224 132/98/223
f 134/100/225 132/98/223 133/99/224
f 133/99/224 135/101/226 134/100/225
f 136/102/227 134/100/225 135/101/226
f 135/101/226 137/103/228 136/102/227
f 138/104/229 136/102/227 137/103/228
f 137/103/228 139/105/230 138/104/229
f 140/106/231 138/104/229 139/105/230
f 139/105/230 141/107/232 140/106/231
f 142/108/233 140/106/231 141/107/232
f 141/107/232 143/109/234 142/108/233
f 144/110/235 142/108/233 143/109/234
f 143/109/234 145/111/236 144/110/235
f 127/89/214 144/110/235 145/111/236
f 145/111/236 116/86/213 127/89/214
f 146/112/237 33/29/238 13/9/237
f 13/9/237 128/94/239 146/112/237
f 147/113/240 146/112/237 128/94/239
f 128/94/239 130/96/241 147/113/240
f 148/114/242 147/113/240 130/96/241
f 130/96/241 132/98/243 148/114/242
f 149/115/244 148/114/242 132/98/243
f 132/98/243 134/100/245 149/115/244
f 150/116/246 149/115/244 134/100/245
f 134/100/245 136/102/247 150/116/246
f 151/117/248 150/116/246 136/102/247
f 136/102/247 138/104/249 151/117/248
f 152/118/250 151/117/248 138/104/249
f 138/104/249 140/106/251 152/118/250
f 153/119/252 152/118/250 140/106/251
f 140/106/251 142/108/253 153/119/252
f 154/120/254 153/119/252 142/108/253
f 142/108/253 144/110/255 154/120/254
f 123/91/211 154/120/254 144/110/255
f 144/110/255 127/89/210 123/91/211
f 155/121/258 43/39/257 33/29/256
f 33/29/256 146/112/259 155/121/258
f 156/122/260 155/121/258 146/112/259
f 146/112/259 147/113/261 156/122/260
f 157/123/262 156/122/260 147/113/261
f 147/113/261 148/114/263 157/123/262
f 158/124/264 157/123/262 148/114/263
f 148/114/263 149/115/265 158/124/264
f 159/125/266 158/124/264 149/115/265
f 149/115/265 150/116/267 159/125/266
f 160/126/268 159/125/266 150/116/267
f 150/116/267 151/117/269 160/126/268
f 161/127/270 160/126/268 151/117/269
f 151/117/269 152/118/271 161/127/270
f 162/128/272 161/127/270 152/118/271
f 152/118/271 153/119/273 162/128/272
f 163/129/274 162/128/272 153/119/273
f 153/119/273 154/120/275 163/129/274
f 124/93/207 163/129/274 154/120/275
f 154/120/275 123/91/206 124/93/207
f 155/121/278 164/112/277 52/29/276
f 52/29/276 43/39/572 155/121/278
f 156/122/280 165/113/279 164/112/277
f 164/112/277 155/121/278 156/122/280
f 157/123/282 166/114/281 165/113/279
f 165/113/279 156/122/280 157/123/282
f 158/124/284 167/115/283 166/114/281
f 166/114/281 157/123/282 158/124/284
f 159/125/286 168/116/285 167/115/283
f 167/115/283 158/124/284 159/125/286
f 160/126/288 169/117/287 168/116/285
f 168/116/285 159/125/286 160/126/288
f 161/127/290 170/118/289 169/117/287
f 169/117/287 160/126/288 161/127/290
f 162/128/292 171/119/291 170/118/289
f 170/118/289 161/127/290 162/128/292
f 163/129/294 172/120/293 171/119/291
f 171/119/291 162/128/292 163/129/294
f 124/93/295 121/91/204 172/120/293
f 172/120/293 163/129/294 124/93/295
f 164/112/296 173/94/297 62/9/296
f 62/9/296 52/29/573 164/112/296
f 165/113/299 174/96/298 173/94/297
f 173/94/297 164/112/296 165/113/299
f 166/114/301 175/98/300 174/96/298
f 174/96/298 165/113/299 166/114/301
f 167/115/303 176/100/302 175/98/300
f 175/98/300 166/114/301 167/115/303
f 168/116/305 177/102/304 176/100/302
f 176/100/302 167/115/303 168/116/305
f 169/117/307 178/104/306 177/102/304
f 177/102/304 168/116/305 169/117/307
f 170/118/309 179/106/308 178/104/306
f 178/104/306 169/117/307 170/118/309
f 171/119/311 180/108/310 179/106/308
f 179/106/308 170/118/309 171/119/311
f 172/120/313 181/110/312 180/108/310
f 180/108/310 171/119/311 172/120/313
f 121/91/314 119/89/201 181/110/312
f 181/110/312 172/120/313 121/91/314
f 173/94/317 129/95/316 14/10/315
f 14/10/315 62/9/574 173/94/317
f 174/96/319 131/97/318 129/95/316
f 129/95/316 173/94/317 174/96/319
f 175/98/321 133/99/320 131/97/318
f 131/97/318 174/96/319 175/98/321
f 176/100/323 135/101/322 133/99/320
f 133/99/320 175/98/321 176/100/323
f 177/102/325 137/103/324 135/101/322
f 135/101/322 176/100/323 177/102/325
f 178/104/327 139/105/326 137/103/324
f 137/103/324 177/102/325 178/104/327
f 179/106/329 141/107/328 139/105/326
f 139/105/326 178/104/327 179/106/329
f 180/108/331 143/109/330 141/107/328
f 141/107/328 179/106/329 180/108/331
f 181/110/333 145/111/332 143/109/330
f 143/109/330 180/108/331 181/110/333
f 119/89/334 116/86/198 145/111/332
f 145/111/332 181/110/333 119/89/334
f 184/132/335 183/131/336 182/130/335
f 182/130/335 193/141/575 184/132/335
f 185/133/337 182/130/338 186/134/337
f 186/134/337 191/139/578 185/133/337
f 184/132/339 187/135/340 186/134/339
f 186/134/339 183/131/579 184/132/339
f 187/135/341 189/137/342 188/136/341
f 188/136/341 186/134/580 187/135/341
f 190/138/344 191/139/345 188/136/344
f 188/136/344 189/137/585 190/138/344
f 192/140/346 185/133/347 191/139/346
f 191/139/346 190/138/586 192/140/346
f 193/141/348 182/130/348 185/133/348
f 185/133/348 192/140/587 193/141/348
f 196/144/349 195/143/349 194/142/349
f 194/142/349 198/146/588 196/144/349
f 195/143/351 201/149/351 200/148/351
f 200/148/351 194/142/351 195/143/351
f 203/151/352 202/150/353 200/148/352
f 200/148/352 201/149/593 203/151/352
f 204/152/357 197/145/357 202/150/357
f 202/150/357 203/151/357 204/152/357
f 205/153/358 199/147/358 197/145/358
f 197/145/358 204/152/597 205/153/358
f 205/153/359 196/144/360 198/146/359
f 198/146/359 199/147/598 205/153/359
f 208/156/361 207/155/362 206/154/361
f 206/154/361 217/162/599 208/156/361
f 212/159/364 211/158/365 207/155/364
f 207/155/364 208/156/605 212/159/364
f 212/159/366 214/161/367 213/160/366
f 213/160/366 211/158/606 212/159/366
f 214/161/369 215/162/370 209/154/369
f 209/154/369 213/160/612 214/161/369
f 215/162/371 216/163/372 210/157/371
f 210/157/371 209/154/613 215/162/371
f 217/162/373 206/154/373 210/157/373
f 210/157/373 216/163/614 217/162/373
f 220/166/374 219/165/362 218/164/374
f 218/164/374 229/171/374 220/166/374
f 229/171/615 218/164/376 221/164/375
f 221/164/375 222/167/376 229/171/615
f 219/165/377 224/169/378 223/168/377
f 223/168/377 218/164/618 219/165/377
f 225/165/379 221/164/380 223/168/379
f 223/168/379 224/169/619 225/165/379
f 226/170/381 225/165/382 219/165/381
f 219/165/381 220/166/620 226/170/381
f 228/166/383 227/171/383 221/164/383
f 221/164/383 225/165/612 228/166/383
f 228/166/384 226/170/384 222/167/384
f 222/167/384 227/171/623 228/166/384
f 220/166/385 229/171/386 222/167/385
f 222/167/385 226/170/385 220/166/385
f 230/172/216 232/174/216 231/173/216
f 231/173/216 493/264/216 230/172/216
f 500/271/387 234/176/387 233/175/387
f 233/175/387 235/177/387 500/271/387
f 238/180/388 237/179/388 236/178/388
f 236/178/388 239/181/388 238/180/388
f 240/182/389 238/180/389 239/181/389
f 239/181/389 251/195/389 240/182/389
f 242/184/390 241/183/390 240/182/390
f 240/182/390 251/195/390 242/184/390
f 244/186/391 243/185/391 241/183/391
f 241/183/391 242/184/391 244/186/391
f 245/189/392 243/188/392 244/187/392
f 244/187/392 255/200/392 245/189/392
f 247/191/393 246/190/393 245/189/393
f 245/189/393 255/200/393 247/191/393
f 248/192/394 246/190/394 247/191/394
f 247/191/394 249/193/394 248/192/394
f 237/179/395 248/192/395 249/193/395
f 249/193/395 236/178/395 237/179/395
f 239/181/396 236/178/396 250/194/396
f 250/194/396 259/204/396 239/181/396
f 252/196/397 251/195/397 239/181/397
f 239/181/397 259/204/397 252/196/397
f 253/197/398 242/184/398 251/195/398
f 251/195/398 252/196/398 253/197/398
f 254/198/399 244/186/399 242/184/399
f 242/184/399 253/197/399 254/198/399
f 255/200/400 244/187/400 254/199/400
f 254/199/400 263/208/400 255/200/400
f 256/201/401 247/191/401 255/200/401
f 255/200/401 263/208/401 256/201/401
f 249/193/402 247/191/402 256/201/402
f 256/201/402 257/202/402 249/193/402
f 236/178/403 249/193/403 257/202/403
f 257/202/403 250/194/403 236/178/403
f 259/204/404 250/194/404 258/203/404
f 258/203/404 260/205/404 259/204/404
f 252/196/405 259/204/405 260/205/405
f 260/205/405 261/206/405 252/196/405
f 253/197/406 252/196/406 261/206/406
f 261/206/406 269/214/406 253/197/406
f 262/207/407 254/198/407 253/197/407
f 253/197/407 269/214/407 262/207/407
f 264/209/408 263/208/408 254/199/408
f 254/199/408 262/216/408 264/209/408
f 265/210/409 256/201/409 263/208/409
f 263/208/409 264/209/409 265/210/409
f 257/202/410 256/201/410 265/210/410
f 265/210/410 273/219/410 257/202/410
f 258/203/411 250/194/411 257/202/411
f 257/202/411 273/219/411 258/203/411
f 260/205/412 258/203/412 266/211/412
f 266/211/412 267/212/412 260/205/412
f 261/206/413 260/205/413 267/212/413
f 267/212/413 268/213/413 261/206/413
f 269/214/414 261/206/414 268/213/414
f 268/213/414 276/256/414 269/214/414
f 270/215/415 262/207/415 269/214/415
f 269/214/415 276/256/415 270/215/415
f 271/217/416 264/209/416 262/216/416
f 262/216/416 270/257/416 271/217/416
f 272/218/417 265/210/417 264/209/417
f 264/209/417 271/217/417 272/218/417
f 273/219/418 265/210/418 272/218/418
f 272/218/418 280/258/418 273/219/418
f 266/211/419 258/203/419 273/219/419
f 273/219/419 280/258/419 266/211/419
f 274/222/391 267/221/391 266/220/391
f 266/220/391 282/235/391 274/222/391
f 275/224/390 268/223/390 267/221/390
f 267/221/390 274/222/390 275/224/390
f 277/226/389 276/225/389 268/223/389
f 268/223/389 275/224/389 277/226/389
f 270/227/388 276/225/388 277/226/388
f 277/226/388 278/239/388 270/227/388
f 271/230/395 270/229/395 278/228/395
f 278/228/395 279/231/395 271/230/395
f 272/232/394 271/230/394 279/231/394
f 279/231/394 288/242/394 272/232/394
f 281/234/393 280/233/393 272/232/393
f 272/232/393 288/242/393 281/234/393
f 266/220/392 280/233/392 281/234/392
f 281/234/392 282/235/392 266/220/392
f 283/236/399 274/222/399 282/235/399
f 282/235/399 290/244/399 283/236/399
f 284/237/398 275/224/398 274/222/398
f 274/222/398 283/236/398 284/237/398
f 285/238/397 277/226/397 275/224/397
f 275/224/397 284/237/397 285/238/397
f 278/239/396 277/226/396 285/238/396
f 285/238/396 286/248/396 278/239/396
f 279/231/403 278/228/403 286/240/403
f 286/240/403 287/241/403 279/231/403
f 288/242/402 279/231/402 287/241/402
f 287/241/402 295/250/402 288/242/402
f 289/243/401 281/234/401 288/242/401
f 288/242/401 295/250/401 289/243/401
f 282/235/400 281/234/400 289/243/400
f 289/243/400 290/244/400 282/235/400
f 291/245/407 283/236/407 290/244/407
f 290/244/407 297/252/407 291/245/407
f 284/237/406 283/236/406 291/245/406
f 291/245/406 292/246/406 284/237/406
f 285/238/405 284/237/405 292/246/405
f 292/246/405 293/247/405 285/238/405
f 286/248/404 285/238/404 293/247/404
f 293/247/404 298/253/404 286/248/404
f 294/249/411 287/241/411 286/240/411
f 286/240/411 298/254/411 294/249/411
f 296/251/410 295/250/410 287/241/410
f 287/241/410 294/249/410 296/251/410
f 289/243/409 295/250/409 296/251/409
f 296/251/409 299/255/409 289/243/409
f 297/252/408 290/244/408 289/243/408
f 289/243/408 299/255/408 297/252/408
f 291/245/415 297/252/415 237/179/415
f 237/179/415 238/180/415 291/245/415
f 292/246/414 291/245/414 238/180/414
f 238/180/414 240/182/414 292/246/414
f 293/247/413 292/246/413 240/182/413
f 240/182/413 241/183/413 293/247/413
f 298/253/412 293/247/412 241/183/412
f 241/183/412 243/185/412 298/253/412
f 245/189/419 294/249/419 298/254/419
f 298/254/419 243/188/419 245/189/419
f 296/251/418 294/249/418 245/189/418
f 245/189/418 246/190/418 296/251/418
f 299/255/417 296/251/417 246/190/417
f 246/190/417 248/192/417 299/255/417
f 237/179/416 297/252/416 299/255/416
f 299/255/416 248/192/416 237/179/416
f 302/181/420 301/180/420 300/179/420
f 300/179/420 313/178/420 302/181/420
f 303/182/421 301/180/421 302/181/421
f 302/181/421 304/195/421 303/182/421
f 305/183/422 303/182/422 304/195/422
f 304/195/422 306/184/422 305/183/422
f 307/185/423 305/183/423 306/184/423
f 306/184/423 316/186/423 307/185/423
f 309/200/424 308/189/424 307/188/424
f 307/188/424 316/187/424 309/200/424
f 311/191/425 310/190/425 308/189/425
f 308/189/425 309/200/425 311/191/425
f 312/192/426 310/190/426 311/191/426
f 311/191/426 319/193/426 312/192/426
f 313/178/427 300/179/427 312/192/427
f 312/192/427 319/193/427 313/178/427
f 314/204/428 302/181/428 313/178/428
f 313/178/428 320/194/428 314/204/428
f 304/195/429 302/181/429 314/204/429
f 314/204/429 323/196/429 304/195/429
f 315/197/430 306/184/430 304/195/430
f 304/195/430 323/196/430 315/197/430
f 316/186/431 306/184/431 315/197/431
f 315/197/431 254/198/431 316/186/431
f 317/208/432 309/200/432 316/187/432
f 316/187/432 254/199/432 317/208/432
f 318/201/433 311/191/433 309/200/433
f 309/200/433 317/208/433 318/201/433
f 319/193/434 311/191/434 318/201/434
f 318/201/434 327/202/434 319/193/434
f 320/194/435 313/178/435 319/193/435
f 319/193/435 327/202/435 320/194/435
f 314/204/436 320/194/436 321/203/436
f 321/203/436 322/205/436 314/204/436
f 323/196/437 314/204/437 322/205/437
f 322/205/437 329/206/437 323/196/437
f 324/214/438 315/197/438 323/196/438
f 323/196/438 329/206/438 324/214/438
f 325/207/439 254/198/439 315/197/439
f 315/197/439 324/214/439 325/207/439
f 317/208/440 254/199/440 325/216/440
f 325/216/440 333/209/440 317/208/440
f 326/210/441 318/201/441 317/208/441
f 317/208/441 333/209/441 326/210/441
f 327/202/442 318/201/442 326/210/442
f 326/210/442 336/219/442 327/202/442
f 321/203/443 320/194/443 327/202/443
f 327/202/443 336/219/443 321/203/443
f 322/205/444 321/203/444 328/211/444
f 328/211/444 337/212/444 322/205/444
f 330/213/445 329/206/445 322/205/445
f 322/205/445 337/212/445 330/213/445
f 331/256/446 324/214/446 329/206/446
f 329/206/446 330/213/624 331/256/446
f 332/215/447 325/207/447 324/214/447
f 324/214/447 331/256/447 332/215/447
f 333/209/448 325/216/448 332/257/448
f 332/257/448 334/217/448 333/209/448
f 326/210/449 333/209/449 334/217/449
f 334/217/449 335/218/449 326/210/449
f 336/219/450 326/210/450 335/218/450
f 335/218/450 343/258/450 336/219/450
f 328/211/451 321/203/451 336/219/451
f 336/219/451 343/258/451 328/211/451
f 338/222/423 337/221/423 328/220/423
f 328/220/423 345/235/423 338/222/423
f 330/223/422 337/221/422 338/222/422
f 338/222/422 339/224/422 330/223/422
f 331/225/421 330/223/452 339/224/421
f 339/224/421 340/226/421 331/225/421
f 332/227/420 331/225/420 340/226/420
f 340/226/420 349/239/420 332/227/420
f 341/231/427 334/230/427 332/229/427
f 332/229/427 349/228/427 341/231/427
f 342/242/426 335/232/426 334/230/426
f 334/230/426 341/231/426 342/242/426
f 344/234/453 343/233/453 335/232/453
f 335/232/453 342/242/453 344/234/453
f 328/220/424 343/233/424 344/234/424
f 344/234/424 345/235/424 328/220/424
f 346/236/431 338/222/431 345/235/431
f 345/235/431 353/244/431 346/236/431
f 347/237/430 339/224/430 338/222/430
f 338/222/430 346/236/430 347/237/430
f 340/226/429 339/224/429 347/237/429
f 347/237/429 348/238/429 340/226/429
f 349/239/428 340/226/428 348/238/428
f 348/238/428 286/248/428 349/239/428
f 350/241/435 341/231/435 349/228/435
f 349/228/435 286/240/435 350/241/435
f 342/242/434 341/231/434 350/241/434
f 350/241/434 357/250/434 342/242/434
f 351/243/433 344/234/433 342/242/433
f 342/242/433 357/250/433 351/243/433
f 345/235/432 344/234/432 351/243/432
f 351/243/432 353/244/432 345/235/432
f 346/236/439 353/244/439 352/252/439
f 352/252/439 359/245/439 346/236/439
f 354/246/438 347/237/438 346/236/438
f 346/236/438 359/245/438 354/246/438
f 348/238/437 347/237/437 354/246/437
f 354/246/437 360/247/437 348/238/437
f 355/253/436 286/248/436 348/238/436
f 348/238/436 360/247/436 355/253/436
f 350/241/443 286/240/443 355/254/443
f 355/254/443 356/249/443 350/241/443
f 357/250/442 350/241/442 356/249/442
f 356/249/442 361/251/442 357/250/442
f 358/255/441 351/243/441 357/250/441
f 357/250/441 361/251/441 358/255/441
f 353/244/440 351/243/440 358/255/440
f 358/255/440 352/252/440 353/244/440
f 359/245/447 352/252/447 300/179/447
f 300/179/447 301/180/447 359/245/447
f 303/182/446 354/246/446 359/245/446
f 359/245/446 301/180/446 303/182/446
f 305/183/445 360/247/445 354/246/445
f 354/246/445 303/182/445 305/183/445
f 307/185/444 355/253/444 360/247/444
f 360/247/444 305/183/444 307/185/444
f 356/249/451 355/254/451 307/188/451
f 307/188/451 308/189/451 356/249/451
f 361/251/454 356/249/454 308/189/454
f 308/189/454 310/190/454 361/251/454
f 312/192/449 358/255/449 361/251/449
f 361/251/449 310/190/449 312/192/449
f 352/252/448 358/255/448 312/192/448
f 312/192/448 300/179/448 352/252/448
f 364/178/455 363/179/455 362/180/455
f 362/180/455 366/181/455 364/178/455
f 366/181/456 362/180/456 365/182/456
f 365/182/456 367/195/456 366/181/456
f 368/184/457 367/195/457 365/182/457
f 365/182/457 369/183/457 368/184/457
f 370/186/458 368/184/458 369/183/458
f 369/183/458 372/185/458 370/186/458
f 370/187/459 372/188/459 371/189/459
f 371/189/459 373/200/459 370/187/459
f 374/191/460 373/200/460 371/189/460
f 371/189/460 376/190/460 374/191/460
f 374/191/461 376/190/461 375/192/461
f 375/192/461 377/193/461 374/191/461
f 377/193/462 375/192/462 363/179/462
f 363/179/462 364/178/462 377/193/462
f 378/194/463 364/178/463 366/181/463
f 366/181/463 379/204/463 378/194/463
f 380/196/464 379/204/464 366/181/464
f 366/181/464 367/195/464 380/196/464
f 381/197/465 380/196/465 367/195/465
f 367/195/465 368/184/465 381/197/465
f 382/198/466 381/197/466 368/184/466
f 368/184/466 370/186/466 382/198/466
f 382/199/467 370/187/467 373/200/467
f 373/200/467 383/208/467 382/199/467
f 384/201/468 383/208/468 373/200/468
f 373/200/468 374/191/468 384/201/468
f 384/201/469 374/191/469 377/193/469
f 377/193/469 385/202/469 384/201/469
f 385/202/470 377/193/470 364/178/470
f 364/178/470 378/194/470 385/202/470
f 386/203/471 378/194/471 379/204/471
f 379/204/471 387/205/471 386/203/471
f 387/205/472 379/204/472 380/196/472
f 380/196/472 388/206/472 387/205/472
f 388/206/473 380/196/473 381/197/473
f 381/197/473 389/214/473 388/206/473
f 390/207/474 389/214/474 381/197/474
f 381/197/474 382/198/474 390/207/474
f 391/209/475 390/216/475 382/199/475
f 382/199/475 383/208/475 391/209/475
f 392/210/476 391/209/476 383/208/476
f 383/208/476 384/201/476 392/210/476
f 392/210/477 384/201/477 385/202/477
f 385/202/477 393/219/477 392/210/477
f 386/203/478 393/219/478 385/202/478
f 385/202/478 378/194/478 386/203/478
f 394/211/479 386/203/479 387/205/479
f 387/205/479 395/212/479 394/211/479
f 395/212/480 387/205/480 388/206/480
f 388/206/480 396/213/480 395/212/480
f 396/213/481 388/206/481 389/214/481
f 389/214/481 397/256/481 396/213/481
f 398/215/482 397/256/482 389/214/482
f 389/214/482 390/207/482 398/215/482
f 399/217/483 398/257/483 390/216/483
f 390/216/483 391/209/483 399/217/483
f 400/218/484 399/217/484 391/209/484
f 391/209/484 392/210/484 400/218/484
f 400/218/485 392/210/485 393/219/485
f 393/219/485 401/258/485 400/218/485
f 394/211/486 401/258/486 393/219/486
f 393/219/486 386/203/486 394/211/486
f 403/222/458 402/235/458 394/220/458
f 394/220/458 395/221/458 403/222/458
f 404/224/457 403/222/457 395/221/457
f 395/221/457 396/223/457 404/224/457
f 405/226/456 404/224/456 396/223/456
f 396/223/456 397/225/456 405/226/456
f 405/226/455 397/225/455 398/227/455
f 398/227/455 406/239/455 405/226/455
f 406/228/462 398/229/462 399/230/462
f 399/230/462 407/231/462 406/228/462
f 407/231/461 399/230/461 400/232/461
f 400/232/461 408/242/461 407/231/461
f 409/234/460 408/242/460 400/232/460
f 400/232/460 401/233/460 409/234/460
f 409/234/459 401/233/459 394/220/459
f 394/220/459 402/235/459 409/234/459
f 411/236/466 410/244/466 402/235/466
f 402/235/466 403/222/466 411/236/466
f 412/237/465 411/236/465 403/222/465
f 403/222/465 404/224/465 412/237/465
f 413/238/464 412/237/464 404/224/464
f 404/224/464 405/226/464 413/238/464
f 413/238/463 405/226/463 406/239/463
f 406/239/463 414/248/463 413/238/463
f 414/240/470 406/228/470 407/231/470
f 407/231/470 415/241/470 414/240/470
f 415/241/469 407/231/469 408/242/469
f 408/242/469 416/250/469 415/241/469
f 417/243/468 416/250/468 408/242/468
f 408/242/468 409/234/468 417/243/468
f 417/243/467 409/234/467 402/235/467
f 402/235/467 410/244/467 417/243/467
f 419/245/474 418/252/474 410/244/474
f 410/244/474 411/236/474 419/245/474
f 419/245/473 411/236/473 412/237/473
f 412/237/473 420/246/473 419/245/473
f 420/246/472 412/237/472 413/238/472
f 413/238/472 421/247/472 420/246/472
f 421/247/471 413/238/471 414/248/471
f 414/248/471 422/253/471 421/247/471
f 423/249/478 422/254/478 414/240/478
f 414/240/478 415/241/478 423/249/478
f 424/251/477 423/249/477 415/241/477
f 415/241/477 416/250/477 424/251/477
f 424/251/476 416/250/476 417/243/476
f 417/243/476 425/255/476 424/251/476
f 418/252/475 425/255/475 417/243/475
f 417/243/475 410/244/475 418/252/475
f 363/179/482 418/252/482 419/245/482
f 419/245/482 362/180/482 363/179/482
f 362/180/481 419/245/481 420/246/481
f 420/246/481 365/182/481 362/180/481
f 365/182/480 420/246/480 421/247/480
f 421/247/480 369/183/480 365/182/480
f 369/183/479 421/247/479 422/253/479
f 422/253/479 372/185/479 369/183/479
f 371/189/486 372/188/486 422/254/486
f 422/254/486 423/249/486 371/189/486
f 371/189/485 423/249/485 424/251/485
f 424/251/485 376/190/485 371/189/485
f 376/190/484 424/251/484 425/255/484
f 425/255/484 375/192/484 376/190/484
f 363/179/483 375/192/483 425/255/483
f 425/255/483 418/252/483 363/179/483
f 428/181/487 427/178/487 426/179/487
f 426/179/487 430/180/487 428/181/487
f 428/181/488 430/180/488 429/182/488
f 429/182/488 432/195/488 428/181/488
f 432/195/489 429/182/489 431/183/489
f 431/183/489 434/184/489 432/195/489
f 434/184/490 431/183/490 433/185/490
f 433/185/490 435/186/490 434/184/490
f 436/200/491 435/187/491 433/188/491
f 433/188/491 437/189/491 436/200/491
f 438/191/492 436/200/492 437/189/492
f 437/189/492 440/190/492 438/191/492
f 438/191/493 440/190/493 439/192/493
f 439/192/493 441/193/493 438/191/493
f 427/178/494 441/193/494 439/192/494
f 439/192/494 426/179/494 427/178/494
f 443/204/495 442/194/495 427/178/495
f 427/178/495 428/181/495 443/204/495
f 443/204/496 428/181/496 432/195/496
f 432/195/496 444/196/496 443/204/496
f 445/197/497 444/196/497 432/195/497
f 432/195/497 434/184/497 445/197/497
f 445/197/498 434/184/498 435/186/498
f 435/186/498 382/198/498 445/197/498
f 446/208/499 382/199/499 435/187/499
f 435/187/499 436/200/499 446/208/499
f 447/201/500 446/208/500 436/200/500
f 436/200/500 438/191/500 447/201/500
f 447/201/501 438/191/501 441/193/501
f 441/193/501 448/202/501 447/201/501
f 442/194/502 448/202/502 441/193/502
f 441/193/502 427/178/502 442/194/502
f 449/203/503 442/194/503 443/204/503
f 443/204/503 450/205/503 449/203/503
f 450/205/504 443/204/504 444/196/504
f 444/196/504 451/206/504 450/205/504
f 452/214/505 451/206/505 444/196/505
f 444/196/505 445/197/505 452/214/505
f 453/207/506 452/214/506 445/197/506
f 445/197/506 382/198/506 453/207/506
f 453/216/507 382/199/507 446/208/507
f 446/208/507 454/209/507 453/216/507
f 455/210/508 454/209/508 446/208/508
f 446/208/508 447/201/508 455/210/508
f 455/210/509 447/201/509 448/202/509
f 448/202/509 456/219/509 455/210/509
f 449/203/510 456/219/510 448/202/510
f 448/202/510 442/194/510 449/203/510
f 457/211/511 449/203/511 450/205/511
f 450/205/511 458/212/511 457/211/511
f 459/213/512 458/212/512 450/205/512
f 450/205/512 451/206/512 459/213/512
f 460/256/513 459/213/514 451/206/513
f 451/206/513 452/214/513 460/256/513
f 461/215/515 460/256/515 452/214/515
f 452/214/515 453/207/515 461/215/515
f 461/257/516 453/216/516 454/209/516
f 454/209/516 462/217/516 461/257/516
f 462/217/517 454/209/517 455/210/517
f 455/210/517 463/218/517 462/217/517
f 463/218/518 455/210/518 456/219/518
f 456/219/518 464/258/518 463/218/518
f 457/211/519 464/258/519 456/219/519
f 456/219/519 449/203/519 457/211/519
f 466/222/490 465/235/490 457/220/490
f 457/220/490 458/221/490 466/222/490
f 466/222/489 458/221/489 459/223/489
f 459/223/489 467/224/489 466/222/489
f 467/224/488 459/223/520 460/225/488
f 460/225/488 468/226/488 467/224/488
f 468/226/487 460/225/487 461/227/487
f 461/227/487 469/239/487 468/226/487
f 470/231/494 469/228/494 461/229/494
f 461/229/494 462/230/494 470/231/494
f 471/242/493 470/231/493 462/230/493
f 462/230/493 463/232/493 471/242/493
f 472/234/521 471/242/521 463/232/521
f 463/232/521 464/233/521 472/234/521
f 472/234/491 464/233/491 457/220/491
f 457/220/491 465/235/491 472/234/491
f 474/236/498 473/244/498 465/235/498
f 465/235/498 466/222/498 474/236/498
f 475/237/497 474/236/497 466/222/497
f 466/222/497 467/224/497 475/237/497
f 475/237/496 467/224/496 468/226/496
f 468/226/496 476/238/496 475/237/496
f 476/238/495 468/226/495 469/239/495
f 469/239/495 414/248/495 476/238/495
f 477/241/502 414/240/502 469/228/502
f 469/228/502 470/231/502 477/241/502
f 477/241/501 470/231/501 471/242/501
f 471/242/501 478/250/501 477/241/501
f 479/243/500 478/250/500 471/242/500
f 471/242/500 472/234/500 479/243/500
f 479/243/499 472/234/499 465/235/499
f 465/235/499 473/244/499 479/243/499
f 480/252/506 473/244/506 474/236/506
f 474/236/506 481/245/506 480/252/506
f 482/246/505 481/245/505 474/236/505
f 474/236/505 475/237/505 482/246/505
f 482/246/504 475/237/504 476/238/504
f 476/238/504 483/247/504 482/246/504
f 484/253/503 483/247/503 476/238/503
f 476/238/503 414/248/503 484/253/503
f 484/254/510 414/240/510 477/241/510
f 477/241/510 485/249/510 484/254/510
f 485/249/509 477/241/509 478/250/509
f 478/250/509 486/251/509 485/249/509
f 487/255/508 486/251/508 478/250/508
f 478/250/508 479/243/508 487/255/508
f 487/255/507 479/243/507 473/244/507
f 473/244/507 480/252/507 487/255/507
f 426/179/515 480/252/515 481/245/515
f 481/245/515 430/180/515 426/179/515
f 429/182/513 430/180/513 481/245/513
f 481/245/513 482/246/513 429/182/513
f 431/183/512 429/182/512 482/246/512
f 482/246/512 483/247/512 431/183/512
f 433/185/511 431/183/511 483/247/511
f 483/247/511 484/253/511 433/185/511
f 433/188/519 484/254/519 485/249/519
f 485/249/519 437/189/519 433/188/519
f 437/189/522 485/249/522 486/251/522
f 486/251/522 440/190/522 437/189/522
f 439/192/517 440/190/517 486/251/517
f 486/251/517 487/255/517 439/192/517
f 439/192/516 487/255/516 480/252/516
f 480/252/516 426/179/516 439/192/516
f 488/259/13 9/5/13 5/5/13
f 5/5/13 3/3/13 488/259/13
f 75/51/531 76/52/530 74/50/529
f 74/50/529 81/57/530 75/51/531
f 88/64/545 89/65/160 90/66/161
f 90/66/161 85/61/544 88/64/545
f 120/90/209 125/90/209 117/87/209
f 117/87/209 118/88/209 120/90/209
f 13/9/216 43/39/216 62/9/216
f 62/9/216 14/10/216 13/9/216
f 190/138/584 187/135/583 193/141/582
f 193/141/582 192/140/583 190/138/584
f 197/145/592 198/146/591 200/148/590
f 200/148/590 202/150/591 197/145/592
f 205/153/595 203/151/354 195/143/355
f 195/143/355 196/144/594 205/153/595
f 213/160/603 209/154/601 206/154/600
f 206/154/600 207/155/602 213/160/603
f 208/156/607 217/162/609 215/162/608
f 215/162/608 214/161/611 208/156/607

